<svg id="svg" version="1.1" xmlns="http://www.w3.org/2000/svg" xmlns:xlink="http://www.w3.org/1999/xlink" width="400" height="140.0735294117647" viewBox="0, 0, 400,140.0735294117647"><g id="svgg"><path id="path0" d="M49.083 18.657 C 48.533 18.726,47.521 18.839,46.833 18.908 C 40.677 19.521,33.764 21.862,27.056 25.607 C 21.571 28.670,13.108 36.504,11.027 40.445 C 10.922 40.644,10.737 40.907,10.616 41.029 C 9.820 41.830,6.812 47.300,5.935 49.541 C 3.665 55.339,2.995 57.820,2.091 63.784 C 1.732 66.153,1.732 73.847,2.091 76.216 C 2.834 81.117,3.794 85.028,4.998 88.058 C 5.076 88.255,5.419 89.129,5.759 90.000 C 6.381 91.591,7.761 94.417,8.621 95.857 C 8.875 96.283,9.330 97.047,9.631 97.554 C 10.113 98.368,12.901 102.281,13.154 102.500 C 13.207 102.546,13.732 103.146,14.321 103.833 C 22.437 113.301,33.430 119.120,47.083 121.174 C 50.787 121.731,57.917 121.520,62.000 120.732 C 64.729 120.205,65.116 120.123,66.000 119.883 C 70.665 118.617,74.754 116.932,79.133 114.472 C 83.228 112.172,88.386 107.856,92.346 103.417 C 94.307 101.218,97.401 96.542,98.976 93.397 C 100.556 90.240,102.342 85.442,102.971 82.667 C 103.064 82.254,103.252 81.429,103.389 80.833 C 104.674 75.233,104.871 68.022,103.905 62.000 C 103.559 59.845,102.982 57.176,102.572 55.833 C 102.049 54.121,101.648 52.897,101.507 52.583 C 101.425 52.400,101.199 51.809,101.006 51.269 C 100.813 50.730,100.521 49.980,100.357 49.603 C 100.193 49.225,99.915 48.579,99.739 48.167 C 96.568 40.744,89.123 32.036,81.917 27.320 C 74.578 22.518,67.577 19.933,58.917 18.828 C 57.100 18.596,50.473 18.481,49.083 18.657 M57.880 49.542 C 58.032 49.656,58.692 50.800,59.346 52.083 C 60.000 53.367,60.593 54.492,60.663 54.583 C 60.733 54.675,61.368 55.889,62.073 57.281 L 63.355 59.812 62.833 60.751 C 62.546 61.267,61.704 62.678,60.963 63.886 C 60.222 65.095,59.167 66.833,58.617 67.750 C 57.501 69.615,57.116 70.091,56.856 69.931 C 56.670 69.816,55.120 67.799,52.276 63.971 C 51.345 62.718,50.496 61.654,50.389 61.607 C 50.272 61.555,49.630 62.533,48.784 64.052 C 48.008 65.444,46.641 67.896,45.746 69.500 C 44.851 71.104,43.727 73.129,43.249 74.000 C 42.771 74.871,42.209 75.883,42.000 76.250 C 41.381 77.335,38.332 82.827,37.696 84.000 C 37.374 84.596,36.935 85.363,36.721 85.705 C 36.508 86.047,36.333 86.379,36.333 86.442 C 36.333 86.659,34.162 90.296,33.905 90.509 C 33.406 90.924,19.080 90.961,18.860 90.549 C 18.719 90.287,18.767 90.097,19.092 89.619 C 19.316 89.288,19.500 88.979,19.500 88.931 C 19.500 88.884,19.932 88.111,20.459 87.214 C 20.987 86.317,21.543 85.358,21.694 85.083 C 21.845 84.808,22.764 83.204,23.735 81.519 C 24.706 79.834,25.500 78.426,25.500 78.391 C 25.500 78.355,25.676 78.047,25.890 77.705 C 26.298 77.054,26.874 76.043,27.714 74.500 C 27.989 73.996,28.315 73.465,28.440 73.320 C 28.565 73.175,28.667 73.010,28.667 72.953 C 28.667 72.895,28.901 72.451,29.188 71.966 C 29.646 71.192,31.215 68.418,32.468 66.167 C 32.698 65.754,33.174 64.940,33.526 64.358 C 33.878 63.776,34.167 63.277,34.167 63.249 C 34.167 63.221,34.992 61.762,36.000 60.007 C 37.008 58.253,37.833 56.784,37.833 56.745 C 37.833 56.705,38.121 56.202,38.472 55.628 C 38.823 55.053,39.300 54.246,39.532 53.833 C 39.763 53.421,40.100 52.821,40.281 52.500 C 40.461 52.179,40.891 51.411,41.235 50.792 C 41.580 50.173,41.986 49.595,42.139 49.505 C 42.583 49.246,57.533 49.281,57.880 49.542 M87.490 49.571 C 87.646 49.759,87.598 49.949,87.260 50.484 C 87.025 50.856,86.833 51.192,86.833 51.231 C 86.833 51.270,86.563 51.777,86.233 52.359 C 85.902 52.941,85.367 53.904,85.043 54.500 C 84.719 55.096,83.987 56.408,83.415 57.417 C 82.843 58.425,82.017 59.925,81.578 60.750 C 81.140 61.575,80.317 63.075,79.749 64.083 C 79.182 65.092,78.442 66.425,78.103 67.047 C 77.765 67.668,77.331 68.456,77.138 68.797 C 76.946 69.138,76.526 69.904,76.206 70.500 C 75.886 71.096,75.570 71.658,75.504 71.750 C 75.437 71.842,75.023 72.592,74.583 73.417 C 74.142 74.242,73.257 75.854,72.614 77.000 C 71.972 78.146,71.206 79.533,70.912 80.083 C 70.618 80.633,70.230 81.346,70.049 81.667 C 69.869 81.987,69.472 82.700,69.167 83.250 C 68.862 83.800,68.487 84.475,68.334 84.750 C 68.181 85.025,67.403 86.424,66.606 87.859 C 65.808 89.295,65.055 90.552,64.933 90.653 C 64.777 90.782,62.411 90.824,56.901 90.793 L 49.091 90.750 48.447 89.583 C 48.093 88.942,47.465 87.779,47.050 87.000 C 46.636 86.221,45.668 84.415,44.899 82.987 C 43.202 79.836,43.162 80.550,45.238 76.849 C 46.194 75.145,47.688 72.475,48.559 70.917 C 49.430 69.358,50.264 68.008,50.413 67.917 C 50.728 67.723,50.612 67.561,52.261 70.491 C 52.909 71.642,53.988 73.558,54.660 74.750 C 55.332 75.942,56.028 77.198,56.208 77.542 C 56.607 78.307,56.747 78.320,57.100 77.625 C 57.375 77.085,61.673 69.505,64.212 65.083 C 64.949 63.800,65.775 62.337,66.047 61.833 C 66.318 61.329,66.633 60.767,66.746 60.583 C 66.858 60.400,67.235 59.725,67.582 59.083 C 67.930 58.442,68.299 57.804,68.404 57.667 C 68.508 57.529,68.772 57.079,68.991 56.667 C 70.238 54.309,72.905 49.720,73.132 49.542 C 73.548 49.214,87.217 49.242,87.490 49.571 " stroke="none" fill="#040404" fill-rule="evenodd"></path><path id="path1" d="M228.500 35.353 C 218.626 36.937,210.495 41.673,205.233 48.905 C 204.562 49.828,203.935 50.674,203.840 50.785 C 203.745 50.895,203.667 51.058,203.667 51.146 C 203.667 51.234,203.603 51.331,203.525 51.361 C 203.269 51.462,201.501 54.757,201.080 55.917 C 200.914 56.375,200.716 56.821,200.639 56.908 C 200.563 56.995,200.500 57.196,200.500 57.353 C 200.500 57.511,200.395 57.852,200.267 58.111 C 199.906 58.843,199.132 61.742,198.851 63.417 C 197.730 70.099,198.162 76.943,200.012 81.833 C 200.202 82.337,200.419 82.943,200.492 83.178 C 200.566 83.414,200.698 83.751,200.786 83.928 C 200.873 84.105,201.271 84.925,201.670 85.750 C 202.805 88.100,204.137 90.198,205.998 92.571 C 207.980 95.098,211.671 98.347,214.417 99.982 C 215.058 100.364,215.696 100.745,215.833 100.830 C 216.658 101.338,219.443 102.603,221.167 103.252 C 228.189 105.898,239.067 106.004,245.667 103.491 C 246.171 103.299,246.771 103.081,247.000 103.007 C 247.669 102.791,249.319 102.090,250.341 101.588 C 265.324 94.216,272.482 78.221,268.505 61.000 C 267.046 54.684,262.053 47.026,256.667 42.844 C 256.071 42.381,255.508 41.942,255.417 41.867 C 252.434 39.446,247.106 37.084,241.833 35.843 C 239.123 35.206,231.228 34.916,228.500 35.353 M132.077 36.542 C 132.033 36.656,132.017 51.862,132.041 70.333 L 132.083 103.917 140.542 103.960 L 149.000 104.003 149.001 98.127 C 149.002 94.894,148.922 87.300,148.824 81.250 C 148.726 75.200,148.669 68.756,148.698 66.929 L 148.750 63.609 149.583 64.920 C 150.437 66.264,151.797 68.433,154.911 73.417 C 155.884 74.975,157.158 77.000,157.741 77.917 C 158.324 78.833,159.261 80.333,159.824 81.250 C 160.387 82.167,161.701 84.267,162.743 85.917 C 163.785 87.567,165.031 89.554,165.513 90.333 C 165.994 91.112,166.778 92.350,167.255 93.083 C 167.966 94.177,170.267 97.843,171.333 99.582 C 172.599 101.646,173.763 103.468,173.968 103.708 C 174.200 103.978,174.785 104.000,181.776 104.000 L 189.333 104.000 189.333 70.167 L 189.333 36.333 180.922 36.333 L 172.510 36.333 172.584 39.875 C 172.625 41.823,172.700 46.229,172.751 49.667 C 172.801 53.104,172.873 57.154,172.911 58.667 C 173.124 67.365,173.179 78.067,173.009 77.833 C 172.838 77.598,171.705 75.791,169.822 72.750 C 169.368 72.017,168.922 71.304,168.831 71.167 C 168.740 71.029,168.589 70.767,168.495 70.583 C 168.400 70.400,168.007 69.747,167.620 69.132 C 166.484 67.327,162.526 60.892,161.439 59.083 C 160.888 58.167,160.377 57.392,160.302 57.361 C 160.228 57.331,160.167 57.229,160.167 57.135 C 160.167 57.042,159.942 56.632,159.667 56.224 C 159.392 55.817,159.167 55.449,159.167 55.407 C 159.167 55.365,158.768 54.712,158.281 53.957 C 157.181 52.253,156.360 50.916,156.002 50.250 C 155.904 50.067,155.507 49.415,155.120 48.801 C 154.733 48.187,153.783 46.650,153.008 45.384 C 152.233 44.119,151.539 43.058,151.466 43.028 C 151.393 42.997,151.333 42.905,151.333 42.823 C 151.333 42.741,150.879 41.941,150.323 41.045 C 149.768 40.150,149.224 39.269,149.115 39.088 C 149.006 38.907,148.650 38.341,148.323 37.832 C 147.997 37.322,147.680 36.776,147.620 36.619 C 147.477 36.246,132.218 36.170,132.077 36.542 M269.500 36.447 C 269.500 36.510,270.708 40.166,272.185 44.572 C 273.661 48.978,274.932 52.808,275.009 53.083 C 275.086 53.358,278.932 64.908,283.555 78.750 L 291.962 103.917 301.023 103.959 L 310.083 104.001 310.364 103.292 C 310.518 102.902,310.842 101.946,311.085 101.167 C 311.328 100.388,311.623 99.487,311.740 99.167 C 311.996 98.464,311.830 98.956,314.585 90.750 C 315.816 87.083,316.903 83.858,317.000 83.583 C 317.344 82.609,318.857 78.076,319.002 77.583 C 319.179 76.983,319.722 75.347,320.274 73.750 C 320.495 73.108,321.132 71.196,321.689 69.500 C 322.246 67.804,322.767 66.267,322.847 66.083 C 322.927 65.900,324.304 61.813,325.907 57.000 C 329.570 46.006,330.449 43.377,330.670 42.750 C 330.766 42.475,331.180 41.237,331.589 40.000 C 332.419 37.492,332.571 37.047,332.747 36.625 C 332.862 36.349,332.367 36.333,323.684 36.333 C 318.633 36.333,314.500 36.361,314.500 36.395 C 314.500 36.429,314.284 37.198,314.021 38.103 C 313.757 39.009,313.503 39.900,313.456 40.083 C 313.410 40.267,312.875 42.127,312.269 44.217 C 311.663 46.307,311.167 48.123,311.167 48.253 C 311.167 48.382,311.060 48.735,310.931 49.036 C 310.801 49.337,310.380 50.708,309.996 52.083 C 309.612 53.458,309.194 54.921,309.066 55.333 C 308.854 56.018,308.350 57.766,307.745 59.917 C 307.616 60.375,307.287 61.500,307.013 62.417 C 306.740 63.333,306.317 64.833,306.075 65.750 C 305.483 67.984,305.402 68.280,305.116 69.250 C 304.889 70.020,304.500 71.369,304.156 72.583 C 304.078 72.858,303.901 73.458,303.764 73.917 C 303.626 74.375,303.315 75.462,303.071 76.333 C 302.828 77.204,302.527 78.254,302.403 78.667 C 302.038 79.876,301.517 81.694,301.312 82.469 C 301.031 83.530,300.986 83.426,299.748 78.833 C 299.464 77.784,298.654 74.936,298.348 73.917 C 298.265 73.642,297.959 72.554,297.668 71.500 C 297.377 70.446,297.030 69.275,296.897 68.897 C 296.765 68.520,296.627 68.070,296.591 67.897 C 296.486 67.386,296.100 66.001,294.765 61.333 C 294.070 58.904,293.277 56.129,293.002 55.167 C 292.727 54.204,292.202 52.390,291.834 51.136 C 291.467 49.881,291.167 48.780,291.167 48.688 C 291.167 48.597,291.080 48.311,290.974 48.053 C 290.869 47.794,290.761 47.471,290.734 47.333 C 290.677 47.036,290.052 44.830,289.081 41.500 C 288.693 40.171,288.206 38.465,287.998 37.708 L 287.620 36.333 278.560 36.333 C 273.577 36.333,269.500 36.385,269.500 36.447 M351.895 36.625 C 351.765 37.026,351.007 38.973,350.743 39.583 C 350.556 40.018,349.717 42.099,349.333 43.083 C 349.262 43.267,348.977 43.979,348.701 44.667 C 347.843 46.801,346.815 49.386,346.547 50.083 C 346.407 50.450,346.196 50.975,346.080 51.250 C 345.964 51.525,345.789 51.938,345.693 52.167 C 345.597 52.396,345.282 53.183,344.993 53.917 C 344.705 54.650,344.222 55.850,343.920 56.583 C 343.618 57.317,343.094 58.629,342.756 59.500 C 342.417 60.371,342.045 61.308,341.928 61.583 C 341.811 61.858,341.508 62.608,341.255 63.250 C 341.002 63.892,340.732 64.567,340.657 64.750 C 339.760 66.919,338.090 71.082,337.081 73.667 C 336.562 74.996,336.036 76.308,335.912 76.583 C 335.788 76.858,335.453 77.683,335.168 78.417 C 334.882 79.150,334.586 79.900,334.510 80.083 C 334.115 81.026,333.274 83.111,332.661 84.667 C 332.282 85.629,331.724 87.017,331.422 87.750 C 331.119 88.483,330.595 89.796,330.257 90.667 C 329.919 91.537,329.395 92.850,329.092 93.583 C 328.789 94.317,328.187 95.817,327.755 96.917 C 327.323 98.017,326.741 99.479,326.462 100.167 C 326.183 100.854,325.895 101.567,325.822 101.750 C 325.748 101.933,325.533 102.449,325.344 102.896 C 325.155 103.343,325.000 103.775,325.000 103.855 C 325.000 104.176,343.952 104.030,344.053 103.708 C 344.103 103.548,344.379 102.779,344.665 102.000 C 344.952 101.221,345.251 100.396,345.331 100.167 C 345.410 99.938,345.634 99.337,345.829 98.833 C 346.023 98.329,346.329 97.504,346.508 97.000 C 346.687 96.496,346.968 95.708,347.133 95.250 L 347.432 94.417 358.946 94.374 L 370.459 94.331 370.638 94.791 C 370.736 95.043,371.472 97.219,372.272 99.625 L 373.727 104.000 383.280 104.000 C 388.534 104.000,392.833 103.937,392.833 103.860 C 392.833 103.741,392.008 101.636,388.312 92.333 C 388.039 91.646,387.750 90.933,387.669 90.750 C 387.588 90.567,387.177 89.517,386.756 88.417 C 386.334 87.317,385.925 86.267,385.846 86.083 C 385.488 85.248,384.611 83.047,383.755 80.833 C 383.241 79.504,382.720 78.192,382.597 77.917 C 382.475 77.642,382.170 76.892,381.921 76.250 C 381.672 75.608,381.255 74.558,380.995 73.917 C 380.735 73.275,380.100 71.662,379.583 70.333 C 379.067 69.004,378.576 67.767,378.493 67.583 C 378.410 67.400,378.188 66.837,378.000 66.333 C 377.812 65.829,377.593 65.267,377.514 65.083 C 377.135 64.205,376.224 61.923,374.920 58.583 C 374.132 56.567,373.424 54.767,373.346 54.583 C 373.014 53.807,372.120 51.577,371.173 49.167 C 370.614 47.746,370.093 46.433,370.015 46.250 C 369.936 46.067,369.669 45.392,369.420 44.750 C 369.171 44.108,368.755 43.058,368.494 42.417 C 368.234 41.775,367.586 40.144,367.054 38.792 L 366.088 36.333 359.039 36.333 C 352.472 36.333,351.983 36.353,351.895 36.625 M42.295 49.958 C 42.154 50.119,41.593 51.038,41.049 52.000 C 40.504 52.962,39.858 54.067,39.613 54.455 C 39.367 54.843,39.167 55.201,39.167 55.250 C 39.167 55.299,38.991 55.620,38.775 55.962 C 38.560 56.304,38.120 57.071,37.798 57.667 C 36.998 59.144,36.432 60.150,35.406 61.917 C 34.927 62.742,34.040 64.270,33.434 65.313 C 32.829 66.356,32.333 67.231,32.333 67.257 C 32.333 67.284,31.985 67.893,31.560 68.611 C 31.135 69.329,30.525 70.404,30.206 71.000 C 29.886 71.596,29.382 72.496,29.085 73.000 C 28.496 74.003,27.394 75.914,26.876 76.833 C 25.780 78.777,23.434 82.895,22.364 84.750 C 21.677 85.942,20.975 87.165,20.805 87.468 C 20.634 87.772,20.200 88.540,19.839 89.177 L 19.184 90.333 26.508 90.333 C 30.649 90.333,33.833 90.269,33.833 90.186 C 33.833 90.061,34.785 88.310,36.311 85.625 C 36.507 85.281,36.826 84.719,37.022 84.375 C 37.217 84.031,37.658 83.225,38.003 82.583 C 38.348 81.942,38.909 80.929,39.250 80.333 C 39.591 79.737,40.173 78.688,40.542 78.000 C 40.912 77.313,41.466 76.328,41.774 75.812 C 42.082 75.295,42.333 74.825,42.333 74.767 C 42.333 74.708,42.534 74.343,42.779 73.955 C 43.024 73.567,43.521 72.688,43.883 72.000 C 44.245 71.313,44.971 70.000,45.496 69.083 C 46.021 68.167,46.753 66.854,47.124 66.167 C 49.717 61.360,50.117 60.777,50.584 61.125 C 50.676 61.194,52.139 63.101,53.834 65.364 C 56.699 69.186,56.936 69.457,57.187 69.197 C 57.895 68.463,62.852 59.930,62.767 59.592 C 62.718 59.397,62.275 58.490,61.782 57.577 C 60.870 55.885,58.819 51.989,58.365 51.083 C 58.227 50.808,57.971 50.377,57.796 50.125 L 57.477 49.667 50.014 49.667 C 43.116 49.667,42.532 49.689,42.295 49.958 M73.198 50.125 C 73.019 50.377,72.725 50.846,72.545 51.167 C 72.366 51.487,71.521 52.987,70.669 54.500 C 69.817 56.012,68.972 57.512,68.792 57.833 C 68.611 58.154,67.709 59.729,66.787 61.333 C 65.865 62.938,64.888 64.662,64.616 65.167 C 64.343 65.671,63.718 66.773,63.227 67.616 C 62.735 68.459,62.333 69.186,62.333 69.233 C 62.333 69.279,61.733 70.342,61.000 71.594 C 60.267 72.846,59.667 73.888,59.667 73.911 C 59.667 73.934,59.292 74.604,58.833 75.400 C 58.375 76.197,58.000 76.882,58.000 76.922 C 58.000 76.962,57.766 77.375,57.480 77.840 C 56.777 78.982,56.480 78.912,55.674 77.417 C 54.826 75.841,54.430 75.146,53.926 74.348 C 53.692 73.977,53.500 73.629,53.500 73.574 C 53.500 73.519,53.211 72.974,52.858 72.362 C 52.505 71.751,51.934 70.725,51.590 70.083 C 50.541 68.128,50.547 68.129,49.660 69.750 C 49.359 70.300,48.987 70.975,48.833 71.250 C 48.680 71.525,48.306 72.200,48.002 72.750 C 47.698 73.300,46.924 74.688,46.283 75.833 C 45.641 76.979,44.931 78.254,44.704 78.667 C 44.478 79.079,44.226 79.488,44.146 79.575 C 43.856 79.889,44.013 80.483,44.725 81.771 C 45.124 82.493,45.944 84.021,46.547 85.167 C 47.149 86.313,48.010 87.925,48.460 88.750 L 49.277 90.250 57.014 90.291 L 64.750 90.332 65.440 89.124 C 65.820 88.460,66.413 87.392,66.758 86.750 C 67.103 86.108,67.700 85.021,68.083 84.333 C 68.467 83.646,69.066 82.558,69.414 81.917 C 69.762 81.275,70.364 80.188,70.753 79.500 C 71.141 78.813,71.628 77.950,71.835 77.583 C 72.042 77.217,72.365 76.617,72.553 76.250 C 72.741 75.883,73.358 74.758,73.924 73.750 C 74.489 72.742,75.198 71.467,75.499 70.917 C 75.799 70.367,76.773 68.604,77.662 67.000 C 78.552 65.396,80.166 62.471,81.248 60.500 C 82.331 58.529,83.552 56.317,83.962 55.583 C 84.371 54.850,84.990 53.725,85.336 53.083 C 85.682 52.442,86.197 51.504,86.480 51.000 C 86.763 50.496,86.995 49.990,86.997 49.875 C 86.999 49.712,85.543 49.667,80.261 49.667 L 73.523 49.667 73.198 50.125 M236.626 50.745 C 244.049 51.864,249.486 57.372,251.519 65.833 C 252.502 69.928,251.701 76.460,249.822 79.667 C 249.742 79.804,249.545 80.179,249.386 80.500 C 244.811 89.698,232.682 92.696,224.004 86.774 C 218.345 82.913,214.901 74.723,215.920 67.552 C 217.530 56.216,226.206 49.174,236.626 50.745 M359.656 59.750 C 359.944 60.758,360.399 62.296,360.667 63.167 C 360.936 64.037,361.349 65.425,361.586 66.250 C 361.823 67.075,362.114 68.050,362.233 68.417 C 362.351 68.783,362.583 69.533,362.746 70.083 C 362.910 70.633,363.140 71.383,363.257 71.750 C 363.374 72.117,363.598 72.867,363.755 73.417 C 364.188 74.938,364.819 77.024,365.014 77.583 C 365.110 77.858,365.291 78.458,365.416 78.917 C 365.541 79.375,365.694 79.881,365.756 80.042 C 365.862 80.317,365.478 80.333,359.082 80.333 L 352.294 80.333 352.412 79.958 C 352.546 79.535,352.955 78.169,353.174 77.417 C 353.254 77.142,353.433 76.542,353.571 76.083 C 354.551 72.836,355.034 71.216,355.089 71.000 C 355.124 70.862,355.613 69.250,356.175 67.417 C 356.738 65.583,357.260 63.833,357.335 63.528 C 357.410 63.222,357.542 62.772,357.629 62.528 C 357.715 62.283,357.919 61.633,358.082 61.083 C 358.244 60.533,358.475 59.783,358.594 59.417 C 358.713 59.050,358.857 58.535,358.913 58.272 C 359.051 57.635,359.054 57.642,359.656 59.750 " stroke="none" fill="#fbfbfb" fill-rule="evenodd"></path><path id="path2" d="M42.288 49.708 C 42.137 49.823,41.437 50.929,40.733 52.167 C 40.028 53.404,39.002 55.204,38.451 56.167 C 37.900 57.129,37.323 58.142,37.168 58.417 C 37.013 58.692,34.145 63.717,30.796 69.583 C 27.446 75.450,24.516 80.587,24.284 81.000 C 24.053 81.412,22.772 83.658,21.438 85.991 C 18.846 90.523,18.814 90.626,20.035 90.567 C 20.428 90.548,23.687 90.526,27.276 90.516 L 33.802 90.500 34.345 89.542 C 34.643 89.015,36.346 85.958,38.129 82.750 C 39.912 79.542,41.543 76.607,41.754 76.229 C 41.964 75.851,42.942 74.089,43.925 72.313 C 48.318 64.381,50.047 61.324,50.187 61.237 C 50.390 61.112,50.559 61.319,53.894 65.750 C 55.480 67.858,56.881 69.583,57.006 69.583 C 57.234 69.583,57.566 69.067,61.082 63.237 C 63.312 59.540,63.235 59.932,62.147 57.868 C 61.678 56.978,60.843 55.387,60.291 54.333 C 58.260 50.457,57.955 49.912,57.698 49.708 C 57.497 49.549,55.698 49.500,50.000 49.500 C 44.309 49.500,42.499 49.549,42.288 49.708 M73.295 49.708 C 73.069 49.883,72.140 51.482,68.379 58.167 C 68.198 58.487,67.538 59.650,66.912 60.750 C 66.286 61.850,65.692 62.900,65.593 63.083 C 65.108 63.973,61.941 69.567,60.497 72.083 C 59.603 73.642,58.429 75.704,57.889 76.667 C 57.349 77.629,56.807 78.417,56.683 78.417 C 56.560 78.417,55.325 76.392,53.938 73.916 C 50.792 68.301,50.712 68.167,50.521 68.167 C 50.369 68.167,50.005 68.734,49.079 70.417 C 48.827 70.875,47.555 73.162,46.253 75.500 C 44.951 77.837,43.845 79.862,43.796 80.000 C 43.707 80.250,44.224 81.292,46.856 86.167 C 47.623 87.587,48.438 89.113,48.667 89.558 C 49.267 90.723,49.064 90.697,57.250 90.649 L 64.583 90.606 65.042 90.119 C 65.294 89.851,65.500 89.571,65.500 89.497 C 65.500 89.424,65.799 88.836,66.164 88.191 C 66.983 86.746,67.281 86.212,68.035 84.833 C 68.596 83.808,71.220 79.057,77.286 68.083 C 78.755 65.425,80.144 62.913,80.372 62.500 C 80.887 61.570,81.596 60.273,82.423 58.750 C 82.771 58.108,83.745 56.346,84.586 54.833 C 87.478 49.637,87.394 49.807,87.145 49.650 C 86.760 49.406,73.613 49.462,73.295 49.708 M57.796 50.125 C 57.971 50.377,58.227 50.808,58.365 51.083 C 58.819 51.989,60.870 55.885,61.782 57.577 C 62.275 58.490,62.718 59.397,62.767 59.592 C 62.852 59.930,57.895 68.463,57.187 69.197 C 56.936 69.457,56.699 69.186,53.834 65.364 C 52.139 63.101,50.676 61.194,50.584 61.125 C 50.117 60.777,49.717 61.360,47.124 66.167 C 46.753 66.854,46.021 68.167,45.496 69.083 C 44.971 70.000,44.245 71.313,43.883 72.000 C 43.521 72.688,43.024 73.567,42.779 73.955 C 42.534 74.343,42.333 74.708,42.333 74.767 C 42.333 74.825,42.082 75.295,41.774 75.812 C 41.466 76.328,40.912 77.313,40.542 78.000 C 40.173 78.688,39.591 79.737,39.250 80.333 C 38.909 80.929,38.348 81.942,38.003 82.583 C 37.658 83.225,37.217 84.031,37.022 84.375 C 36.826 84.719,36.507 85.281,36.311 85.625 C 34.785 88.310,33.833 90.061,33.833 90.186 C 33.833 90.269,30.649 90.333,26.508 90.333 L 19.184 90.333 19.839 89.177 C 20.200 88.540,20.634 87.772,20.805 87.468 C 20.975 87.165,21.677 85.942,22.364 84.750 C 23.434 82.895,25.780 78.777,26.876 76.833 C 27.394 75.914,28.496 74.003,29.085 73.000 C 29.382 72.496,29.886 71.596,30.206 71.000 C 30.525 70.404,31.135 69.329,31.560 68.611 C 31.985 67.893,32.333 67.284,32.333 67.257 C 32.333 67.231,32.829 66.356,33.434 65.313 C 34.040 64.270,34.927 62.742,35.406 61.917 C 36.432 60.150,36.998 59.144,37.798 57.667 C 38.120 57.071,38.560 56.304,38.775 55.962 C 38.991 55.620,39.167 55.299,39.167 55.250 C 39.167 55.201,39.367 54.843,39.613 54.455 C 39.858 54.067,40.504 52.962,41.049 52.000 C 41.593 51.038,42.154 50.119,42.295 49.958 C 42.532 49.689,43.116 49.667,50.014 49.667 L 57.477 49.667 57.796 50.125 M86.997 49.875 C 86.995 49.990,86.763 50.496,86.480 51.000 C 86.197 51.504,85.682 52.442,85.336 53.083 C 84.990 53.725,84.371 54.850,83.962 55.583 C 83.552 56.317,82.331 58.529,81.248 60.500 C 80.166 62.471,78.552 65.396,77.662 67.000 C 76.773 68.604,75.799 70.367,75.499 70.917 C 75.198 71.467,74.489 72.742,73.924 73.750 C 73.358 74.758,72.741 75.883,72.553 76.250 C 72.365 76.617,72.042 77.217,71.835 77.583 C 71.628 77.950,71.141 78.813,70.753 79.500 C 70.364 80.188,69.762 81.275,69.414 81.917 C 69.066 82.558,68.467 83.646,68.083 84.333 C 67.700 85.021,67.103 86.108,66.758 86.750 C 66.413 87.392,65.820 88.460,65.440 89.124 L 64.750 90.332 57.014 90.291 L 49.277 90.250 48.460 88.750 C 48.010 87.925,47.149 86.313,46.547 85.167 C 45.944 84.021,45.124 82.493,44.725 81.771 C 44.013 80.483,43.856 79.889,44.146 79.575 C 44.226 79.488,44.478 79.079,44.704 78.667 C 44.931 78.254,45.641 76.979,46.283 75.833 C 46.924 74.688,47.698 73.300,48.002 72.750 C 48.306 72.200,48.680 71.525,48.833 71.250 C 48.987 70.975,49.359 70.300,49.660 69.750 C 50.547 68.129,50.541 68.128,51.590 70.083 C 51.934 70.725,52.505 71.751,52.858 72.362 C 53.211 72.974,53.500 73.519,53.500 73.574 C 53.500 73.629,53.692 73.977,53.926 74.348 C 54.430 75.146,54.826 75.841,55.674 77.417 C 56.480 78.912,56.777 78.982,57.480 77.840 C 57.766 77.375,58.000 76.962,58.000 76.922 C 58.000 76.882,58.375 76.197,58.833 75.400 C 59.292 74.604,59.667 73.934,59.667 73.911 C 59.667 73.888,60.267 72.846,61.000 71.594 C 61.733 70.342,62.333 69.279,62.333 69.233 C 62.333 69.186,62.735 68.459,63.227 67.616 C 63.718 66.773,64.343 65.671,64.616 65.167 C 64.888 64.662,65.865 62.938,66.787 61.333 C 67.709 59.729,68.611 58.154,68.792 57.833 C 68.972 57.512,69.817 56.012,70.669 54.500 C 71.521 52.987,72.366 51.487,72.545 51.167 C 72.725 50.846,73.019 50.377,73.198 50.125 L 73.523 49.667 80.261 49.667 C 85.543 49.667,86.999 49.712,86.997 49.875 " stroke="none" fill="#a0a0a0" fill-rule="evenodd"></path><path id="path3" d="M42.041 49.625 C 41.679 49.945,40.282 52.338,40.392 52.448 C 40.430 52.486,40.819 51.894,41.256 51.133 C 41.693 50.373,42.133 49.695,42.233 49.628 C 42.334 49.560,45.829 49.505,50.000 49.505 C 58.505 49.505,57.778 49.393,58.489 50.809 C 58.782 51.391,59.054 51.835,59.093 51.796 C 59.211 51.678,58.183 49.767,57.882 49.542 C 57.383 49.169,42.467 49.248,42.041 49.625 M73.132 49.542 C 72.986 49.656,72.063 51.175,71.082 52.917 C 70.100 54.658,69.152 56.337,68.975 56.646 C 68.798 56.955,68.684 57.240,68.722 57.278 C 68.782 57.337,71.439 52.745,72.644 50.500 C 72.866 50.087,73.130 49.695,73.232 49.628 C 73.613 49.375,87.169 49.478,87.267 49.734 C 87.316 49.863,86.801 50.969,86.121 52.192 C 85.441 53.416,84.097 55.842,83.134 57.583 C 82.171 59.325,80.228 62.832,78.816 65.376 C 77.405 67.921,76.061 70.358,75.830 70.793 C 74.803 72.725,71.905 77.975,71.554 78.538 C 71.165 79.163,71.038 79.537,71.316 79.242 C 71.478 79.069,73.304 75.813,74.583 73.417 C 75.023 72.592,75.437 71.842,75.504 71.750 C 75.570 71.658,75.886 71.096,76.206 70.500 C 76.526 69.904,76.946 69.138,77.138 68.797 C 77.331 68.456,77.765 67.668,78.103 67.047 C 78.442 66.425,79.182 65.092,79.749 64.083 C 80.317 63.075,81.140 61.575,81.578 60.750 C 82.017 59.925,82.843 58.425,83.415 57.417 C 83.987 56.408,84.719 55.096,85.043 54.500 C 85.367 53.904,85.902 52.941,86.233 52.359 C 86.563 51.777,86.833 51.270,86.833 51.231 C 86.833 51.192,87.025 50.856,87.260 50.484 C 88.008 49.299,88.212 49.333,80.345 49.333 C 75.039 49.333,73.334 49.383,73.132 49.542 M59.177 52.083 C 59.177 52.175,59.287 52.396,59.422 52.574 C 59.557 52.751,59.667 52.822,59.667 52.730 C 59.667 52.639,59.557 52.418,59.422 52.240 C 59.287 52.062,59.177 51.992,59.177 52.083 M39.939 53.072 C 39.789 53.301,39.667 53.526,39.667 53.572 C 39.667 53.617,39.254 54.335,38.750 55.167 C 38.246 55.998,37.833 56.710,37.833 56.748 C 37.833 56.786,37.008 58.253,36.000 60.007 C 34.992 61.762,34.167 63.221,34.167 63.249 C 34.167 63.277,33.878 63.776,33.526 64.358 C 33.174 64.940,32.698 65.754,32.468 66.167 C 31.209 68.429,29.644 71.194,29.181 71.979 C 28.890 72.471,28.684 72.907,28.725 72.947 C 28.765 72.987,29.022 72.622,29.296 72.135 C 30.615 69.793,37.551 57.618,38.858 55.350 C 40.142 53.123,40.761 51.817,39.939 53.072 M60.801 55.208 C 61.439 56.423,62.200 57.893,62.492 58.475 C 62.783 59.057,63.055 59.501,63.095 59.460 C 63.136 59.420,62.821 58.719,62.397 57.902 C 60.651 54.544,59.810 53.000,59.727 53.000 C 59.679 53.000,60.162 53.994,60.801 55.208 M68.378 57.708 C 68.288 57.823,67.931 58.442,67.583 59.083 C 67.235 59.725,66.858 60.400,66.746 60.583 C 66.633 60.767,66.318 61.329,66.047 61.833 C 65.775 62.337,64.949 63.800,64.212 65.083 C 61.673 69.505,57.375 77.085,57.100 77.625 C 56.747 78.320,56.607 78.307,56.208 77.542 C 56.028 77.198,55.332 75.942,54.660 74.750 C 53.988 73.558,52.909 71.642,52.261 70.491 C 50.612 67.561,50.728 67.723,50.413 67.917 C 50.264 68.008,49.430 69.358,48.559 70.917 C 47.688 72.475,46.185 75.159,45.220 76.881 C 44.124 78.835,43.495 80.129,43.546 80.323 C 43.660 80.761,46.520 86.036,46.599 85.956 C 46.635 85.920,45.980 84.628,45.143 83.085 L 43.621 80.279 44.222 79.098 C 44.552 78.448,45.058 77.504,45.346 77.000 C 46.057 75.755,46.596 74.787,47.295 73.500 C 47.618 72.904,48.163 71.929,48.506 71.333 C 48.849 70.737,49.334 69.875,49.584 69.417 C 50.309 68.087,50.576 67.867,50.874 68.355 C 51.250 68.972,55.050 75.777,55.771 77.125 C 56.720 78.902,56.339 79.358,61.381 70.417 C 62.209 68.950,63.012 67.525,63.167 67.250 C 63.323 66.975,63.939 65.887,64.538 64.833 C 65.137 63.779,65.836 62.542,66.092 62.083 C 66.347 61.625,66.944 60.575,67.419 59.750 C 68.680 57.559,68.957 56.967,68.378 57.708 M60.254 64.684 C 58.607 67.421,57.171 69.693,57.064 69.735 C 56.956 69.776,55.434 67.902,53.680 65.571 C 51.927 63.240,50.398 61.333,50.284 61.333 C 50.100 61.333,49.479 62.377,47.363 66.240 C 47.059 66.795,46.579 67.662,46.296 68.167 C 46.013 68.671,45.615 69.383,45.411 69.750 C 45.207 70.117,44.308 71.729,43.414 73.333 C 42.519 74.938,41.561 76.662,41.284 77.167 C 41.008 77.671,40.258 79.021,39.618 80.167 C 38.978 81.313,38.064 82.962,37.586 83.833 C 35.409 87.805,34.112 90.099,33.938 90.282 C 33.608 90.630,19.205 90.794,19.074 90.451 C 19.009 90.283,19.997 88.387,21.759 85.301 C 23.292 82.615,25.036 79.554,25.634 78.500 C 26.232 77.446,26.897 76.304,27.111 75.962 C 27.325 75.620,27.498 75.282,27.496 75.212 C 27.492 75.054,26.842 75.869,26.837 76.039 C 26.835 76.106,26.533 76.651,26.167 77.250 C 25.800 77.849,25.500 78.365,25.500 78.397 C 25.500 78.429,24.706 79.834,23.735 81.519 C 22.764 83.204,21.845 84.808,21.694 85.083 C 21.543 85.358,20.987 86.317,20.459 87.214 C 19.932 88.111,19.500 88.884,19.500 88.931 C 19.500 88.979,19.316 89.288,19.092 89.619 C 18.767 90.097,18.719 90.287,18.860 90.549 C 19.080 90.961,33.406 90.924,33.905 90.509 C 34.162 90.296,36.333 86.659,36.333 86.442 C 36.333 86.379,36.508 86.047,36.721 85.705 C 36.935 85.363,37.374 84.596,37.696 84.000 C 38.332 82.827,41.381 77.335,42.000 76.250 C 42.209 75.883,42.771 74.871,43.249 74.000 C 43.727 73.129,44.851 71.104,45.746 69.500 C 46.641 67.896,48.008 65.444,48.784 64.052 C 49.630 62.533,50.272 61.555,50.389 61.607 C 50.496 61.654,51.345 62.718,52.276 63.971 C 55.120 67.799,56.670 69.816,56.856 69.931 C 57.116 70.091,57.501 69.615,58.617 67.750 C 59.167 66.833,60.222 65.095,60.963 63.886 C 62.517 61.353,63.383 59.825,63.305 59.756 C 63.275 59.730,61.902 61.947,60.254 64.684 M28.254 73.583 C 28.114 73.813,27.887 74.185,27.750 74.411 C 27.478 74.858,27.413 75.162,27.645 74.908 C 27.896 74.633,28.703 73.167,28.603 73.167 C 28.551 73.167,28.393 73.354,28.254 73.583 M68.085 84.868 C 66.459 87.828,65.010 90.344,64.866 90.458 C 64.395 90.832,49.460 90.753,49.131 90.375 C 48.991 90.215,48.409 89.198,47.837 88.116 C 47.264 87.034,46.762 86.183,46.720 86.225 C 46.678 86.267,46.926 86.815,47.273 87.442 C 47.619 88.070,48.169 89.071,48.496 89.667 L 49.091 90.750 56.901 90.793 C 62.411 90.824,64.777 90.782,64.933 90.653 C 65.055 90.552,65.808 89.295,66.606 87.859 C 67.403 86.424,68.181 85.025,68.334 84.750 C 68.487 84.475,68.862 83.800,69.167 83.250 C 69.472 82.700,69.847 82.025,70.000 81.750 C 70.153 81.475,70.482 80.885,70.730 80.438 C 70.979 79.992,71.150 79.595,71.112 79.556 C 71.073 79.517,69.711 81.907,68.085 84.868 " stroke="none" fill="#747474" fill-rule="evenodd"></path><path id="path4" d="M22.375 90.624 C 23.360 90.654,24.973 90.654,25.958 90.624 C 26.944 90.595,26.137 90.571,24.167 90.571 C 22.196 90.571,21.390 90.595,22.375 90.624 " stroke="none" fill="#7c7c7c" fill-rule="evenodd"></path></g></svg>