<svg id="svg" version="1.1" xmlns="http://www.w3.org/2000/svg" xmlns:xlink="http://www.w3.org/1999/xlink" width="400" height="514.2083897158321" viewBox="0, 0, 400,514.2083897158321"><g id="svgg"><path id="path0" d="M168.349 198.424 C 168.043 198.753,167.352 199.872,166.815 200.910 C 166.278 201.948,165.365 203.571,164.786 204.516 C 164.208 205.461,163.735 206.298,163.735 206.376 C 163.735 206.454,163.507 206.847,163.228 207.250 C 162.949 207.654,161.896 209.445,160.888 211.231 C 159.880 213.018,158.814 214.905,158.518 215.426 C 158.222 215.947,157.373 217.470,156.632 218.809 C 155.890 220.149,155.192 221.367,155.080 221.516 C 154.968 221.664,154.575 222.334,154.206 223.004 C 153.838 223.674,152.585 225.866,151.421 227.876 C 150.257 229.885,149.004 232.077,148.635 232.747 C 148.267 233.417,147.873 234.087,147.760 234.235 C 147.646 234.384,147.095 235.359,146.535 236.401 C 145.009 239.239,144.488 240.157,144.207 240.503 C 144.067 240.676,143.616 241.467,143.205 242.262 C 142.794 243.057,141.503 245.352,140.335 247.361 C 139.167 249.371,138.117 251.198,138.001 251.421 C 137.884 251.644,137.111 252.952,136.283 254.327 C 135.455 255.703,134.777 256.902,134.777 256.993 C 134.777 257.084,134.367 257.846,133.867 258.687 C 131.969 261.878,130.567 264.296,130.158 265.084 C 129.925 265.533,128.778 267.544,127.608 269.553 C 126.439 271.563,125.055 273.999,124.533 274.966 C 124.010 275.934,123.057 277.618,122.414 278.710 C 121.771 279.801,121.245 280.743,121.245 280.802 C 121.245 280.862,120.758 281.707,120.162 282.679 C 119.567 283.652,119.080 284.495,119.080 284.553 C 119.080 284.610,117.923 286.635,116.509 289.053 C 115.095 291.471,113.938 293.508,113.938 293.579 C 113.938 293.650,113.344 294.698,112.617 295.907 C 111.531 297.715,108.515 302.949,106.359 306.766 C 106.107 307.212,105.151 308.877,104.236 310.465 C 103.320 312.053,102.571 313.424,102.571 313.512 C 102.571 313.600,102.206 314.176,101.759 314.793 C 100.897 315.983,100.731 316.637,101.286 316.655 C 101.472 316.661,110.999 316.657,122.457 316.644 L 143.290 316.622 143.909 316.040 C 144.250 315.720,144.873 314.781,145.295 313.954 C 146.737 311.120,148.674 307.578,149.709 305.882 C 150.278 304.949,150.744 304.094,150.744 303.982 C 150.744 303.871,151.028 303.355,151.374 302.837 C 151.721 302.319,152.561 300.859,153.240 299.594 C 153.920 298.329,154.987 296.380,155.612 295.264 C 156.236 294.147,157.177 292.442,157.703 291.475 C 158.229 290.507,159.182 288.802,159.822 287.686 C 160.461 286.570,161.262 285.078,161.602 284.371 C 161.941 283.664,162.316 283.085,162.436 283.085 C 162.555 283.085,162.652 282.959,162.652 282.805 C 162.652 282.651,163.212 281.539,163.896 280.334 C 164.579 279.129,165.626 277.215,166.222 276.081 C 166.818 274.947,167.402 273.897,167.520 273.748 C 167.767 273.436,171.583 266.539,171.583 266.405 C 171.583 266.355,172.082 265.500,172.692 264.504 C 173.302 263.508,174.256 261.831,174.813 260.778 C 176.315 257.940,177.797 255.239,178.374 254.290 C 178.654 253.828,179.004 253.207,179.150 252.909 C 179.296 252.612,179.777 251.759,180.217 251.015 C 180.658 250.271,181.468 248.809,182.018 247.767 C 182.568 246.725,183.114 245.751,183.231 245.602 C 183.453 245.321,185.649 241.324,187.766 237.348 C 188.440 236.083,189.276 234.593,189.624 234.038 C 189.972 233.483,190.257 232.953,190.257 232.862 C 190.257 232.399,191.440 231.123,191.869 231.123 C 192.302 231.123,194.898 234.354,197.521 238.160 C 197.880 238.681,198.265 239.168,198.375 239.242 C 198.485 239.317,198.926 239.877,199.355 240.487 C 199.784 241.097,200.858 242.557,201.741 243.732 C 203.712 246.352,203.602 246.209,204.549 247.361 C 204.978 247.882,206.435 249.831,207.789 251.691 C 211.657 257.011,211.524 256.925,212.600 254.798 C 213.016 253.976,213.517 253.169,213.715 253.005 C 213.912 252.842,214.073 252.598,214.073 252.464 C 214.073 252.273,216.608 247.897,218.126 245.467 C 221.318 240.358,222.192 238.911,222.192 238.730 C 222.192 238.610,222.538 238.033,222.962 237.449 C 223.385 236.865,224.303 235.416,225.002 234.229 C 225.701 233.042,226.387 231.888,226.525 231.664 C 226.664 231.441,227.270 230.431,227.872 229.420 L 228.966 227.582 227.436 224.684 C 226.595 223.090,224.873 219.777,223.610 217.321 C 222.348 214.865,220.657 211.637,219.854 210.149 C 219.050 208.660,217.900 206.468,217.298 205.277 C 215.361 201.451,213.950 198.944,213.455 198.451 C 213.001 198.000,211.626 197.966,190.939 197.898 L 168.907 197.826 168.349 198.424 M258.833 198.214 C 258.518 198.440,257.920 199.331,257.505 200.192 C 257.089 201.054,256.543 202.064,256.291 202.436 C 256.040 202.808,255.394 203.922,254.855 204.913 C 254.317 205.903,253.567 207.168,253.190 207.724 C 252.812 208.281,252.503 208.818,252.503 208.919 C 252.503 209.020,250.981 211.763,249.120 215.015 C 247.260 218.267,245.737 220.989,245.737 221.065 C 245.737 221.140,245.573 221.395,245.371 221.630 C 245.170 221.865,244.512 222.970,243.909 224.087 C 243.307 225.203,242.332 226.969,241.743 228.011 C 241.154 229.053,240.094 230.940,239.386 232.206 C 238.679 233.471,238.007 234.628,237.893 234.777 C 237.779 234.926,237.230 235.900,236.674 236.942 C 235.604 238.944,234.530 240.837,232.248 244.743 C 231.480 246.057,230.853 247.201,230.853 247.285 C 230.853 247.369,230.365 248.209,229.770 249.152 C 229.175 250.095,228.687 250.950,228.687 251.053 C 228.687 251.156,228.158 252.103,227.510 253.157 C 226.862 254.212,226.257 255.257,226.166 255.480 C 226.074 255.704,225.631 256.495,225.181 257.240 C 224.732 257.984,224.280 258.775,224.178 258.999 C 224.075 259.222,223.724 259.833,223.398 260.357 C 223.072 260.880,222.411 262.037,221.928 262.928 C 220.441 265.671,219.909 266.619,218.334 269.331 C 217.497 270.772,216.385 272.743,215.861 273.713 C 214.557 276.129,214.231 276.703,214.073 276.861 C 213.845 277.088,213.273 278.048,213.019 278.628 C 210.779 283.742,210.373 283.721,207.575 278.349 C 206.645 276.563,205.445 274.371,204.910 273.478 C 203.950 271.877,203.306 270.715,201.607 267.524 C 201.132 266.631,200.161 264.926,199.450 263.735 C 197.883 261.112,196.796 259.169,195.590 256.834 C 195.090 255.866,194.386 254.583,194.026 253.982 C 193.665 253.381,193.239 252.657,193.079 252.374 C 192.920 252.091,192.676 251.821,192.538 251.776 C 192.289 251.693,190.252 255.170,188.353 258.920 C 187.810 259.992,187.237 261.028,187.081 261.220 C 186.924 261.412,186.434 262.240,185.992 263.058 C 185.549 263.877,184.933 264.973,184.621 265.494 C 184.310 266.015,183.847 266.867,183.593 267.388 C 183.338 267.909,182.741 269.005,182.266 269.824 C 179.793 274.081,179.029 275.441,178.038 277.344 C 177.442 278.489,176.858 279.549,176.740 279.700 C 176.556 279.935,175.825 281.224,174.359 283.897 C 174.155 284.269,173.761 284.939,173.482 285.386 C 172.643 286.731,172.766 287.115,175.652 292.152 C 175.993 292.747,176.994 294.635,177.877 296.346 C 178.759 298.058,179.574 299.581,179.688 299.729 C 179.802 299.878,180.664 301.461,181.605 303.248 C 182.546 305.034,183.531 306.861,183.794 307.307 C 184.057 307.754,184.734 309.032,185.299 310.149 C 185.864 311.265,186.761 312.909,187.294 313.802 C 187.827 314.696,188.343 315.641,188.441 315.904 C 188.793 316.847,189.836 316.892,211.693 316.908 C 236.625 316.927,234.083 317.237,235.623 313.993 C 236.167 312.846,236.761 311.725,236.941 311.502 C 237.122 311.279,237.729 310.244,238.291 309.202 C 238.852 308.160,240.045 305.968,240.942 304.330 C 241.839 302.693,242.934 300.683,243.375 299.865 C 243.817 299.046,244.269 298.254,244.380 298.106 C 244.631 297.771,246.236 294.877,246.781 293.775 C 247.003 293.329,247.254 292.903,247.340 292.828 C 247.426 292.754,247.740 292.206,248.038 291.612 C 248.336 291.017,249.048 289.677,249.620 288.635 C 250.193 287.592,251.155 285.825,251.758 284.709 C 252.361 283.593,253.019 282.487,253.220 282.252 C 253.421 282.017,253.586 281.711,253.586 281.571 C 253.586 281.432,254.086 280.467,254.697 279.427 C 255.308 278.388,256.334 276.544,256.977 275.331 C 257.620 274.117,258.460 272.628,258.843 272.021 C 259.226 271.414,259.540 270.859,259.540 270.787 C 259.540 270.657,263.101 264.091,263.586 263.329 C 263.727 263.106,264.292 262.070,264.840 261.028 C 265.389 259.986,266.045 258.829,266.299 258.457 C 266.552 258.085,267.347 256.685,268.066 255.345 C 268.784 254.005,269.732 252.240,270.171 251.421 C 270.611 250.602,271.066 249.811,271.183 249.662 C 271.299 249.513,271.968 248.295,272.670 246.955 C 273.372 245.616,274.038 244.398,274.151 244.249 C 274.264 244.100,274.782 243.187,275.302 242.219 C 275.822 241.252,276.955 239.181,277.820 237.618 C 279.312 234.924,280.141 233.421,283.274 227.740 C 284.012 226.401,285.202 224.208,285.918 222.869 C 286.634 221.529,287.362 220.250,287.536 220.027 C 287.710 219.804,288.378 218.586,289.021 217.321 C 289.664 216.055,290.289 214.895,290.409 214.743 C 290.530 214.590,291.101 213.555,291.679 212.443 C 292.258 211.330,293.179 209.668,293.727 208.750 C 294.274 207.832,294.723 207.008,294.723 206.918 C 294.723 206.828,295.006 206.301,295.351 205.746 C 295.697 205.190,296.553 203.661,297.254 202.347 C 297.954 201.032,298.720 199.663,298.955 199.304 C 299.856 197.929,300.511 197.976,279.263 197.886 C 261.822 197.812,259.335 197.852,258.833 198.214 " stroke="none" fill="#f9f9f9" fill-rule="evenodd"></path><path id="path1" d="M60.124 108.253 C 59.626 108.370,59.084 108.602,58.919 108.767 C 58.755 108.931,58.397 109.066,58.124 109.066 C 57.852 109.066,57.558 109.249,57.473 109.472 C 57.387 109.696,57.147 109.878,56.940 109.878 C 56.733 109.878,56.563 110.061,56.563 110.284 C 56.563 110.507,56.432 110.690,56.271 110.690 C 55.891 110.690,53.586 112.995,53.586 113.375 C 53.586 113.536,53.403 113.667,53.180 113.667 C 52.932 113.667,52.774 113.920,52.774 114.315 C 52.774 114.671,52.591 115.032,52.368 115.118 C 52.145 115.204,51.962 115.538,51.962 115.862 C 51.962 116.185,51.749 116.605,51.488 116.795 C 50.751 117.335,50.751 397.050,51.488 398.176 C 51.749 398.573,51.962 399.089,51.962 399.322 C 51.962 399.556,52.145 399.816,52.368 399.902 C 52.591 399.988,52.774 400.228,52.774 400.435 C 52.774 400.642,52.957 400.812,53.180 400.812 C 53.403 400.812,53.586 400.995,53.586 401.218 C 53.586 401.441,53.695 401.624,53.827 401.624 C 53.960 401.624,54.145 401.928,54.238 402.300 C 54.362 402.795,54.589 402.977,55.080 402.977 C 55.496 402.977,55.751 403.131,55.751 403.383 C 55.751 403.606,55.934 403.789,56.157 403.789 C 56.380 403.789,56.563 403.972,56.563 404.195 C 56.563 404.418,56.733 404.601,56.940 404.601 C 57.147 404.601,57.387 404.783,57.473 405.007 C 57.558 405.230,57.852 405.413,58.124 405.413 C 58.397 405.413,58.772 405.565,58.958 405.751 C 59.228 406.021,87.783 406.089,199.923 406.089 C 312.184 406.089,340.573 406.021,340.663 405.751 C 340.725 405.565,341.074 405.413,341.438 405.413 C 341.803 405.413,342.171 405.230,342.257 405.007 C 342.342 404.783,342.704 404.601,343.060 404.601 C 343.455 404.601,343.708 404.443,343.708 404.195 C 343.708 403.972,343.890 403.789,344.114 403.789 C 344.337 403.789,344.520 403.606,344.520 403.383 C 344.520 403.160,344.650 402.977,344.810 402.977 C 344.969 402.977,345.274 402.803,345.486 402.590 C 345.699 402.378,345.873 402.073,345.873 401.914 C 345.873 401.754,346.055 401.624,346.279 401.624 C 346.502 401.624,346.685 401.441,346.685 401.218 C 346.685 400.995,346.867 400.812,347.091 400.812 C 347.338 400.812,347.497 400.560,347.497 400.164 C 347.497 399.808,347.679 399.447,347.903 399.361 C 348.126 399.275,348.309 398.907,348.309 398.543 C 348.309 398.178,348.461 397.829,348.647 397.767 C 348.917 397.677,348.985 369.331,348.985 257.240 C 348.985 145.148,348.917 116.802,348.647 116.712 C 348.461 116.650,348.309 116.301,348.309 115.936 C 348.309 115.572,348.126 115.204,347.903 115.118 C 347.679 115.032,347.497 114.671,347.497 114.315 C 347.497 113.920,347.338 113.667,347.091 113.667 C 346.867 113.667,346.685 113.484,346.685 113.261 C 346.685 113.038,346.502 112.855,346.279 112.855 C 346.055 112.855,345.873 112.724,345.873 112.564 C 345.873 112.185,344.378 110.690,343.999 110.690 C 343.839 110.690,343.708 110.507,343.708 110.284 C 343.708 110.036,343.455 109.878,343.060 109.878 C 342.704 109.878,342.342 109.696,342.257 109.472 C 342.171 109.249,341.836 109.066,341.513 109.066 C 341.190 109.066,340.770 108.853,340.579 108.593 C 340.206 108.083,62.263 107.746,60.124 108.253 M300.066 197.619 C 300.564 198.032,300.502 198.283,299.482 199.965 C 298.974 200.803,298.120 202.330,297.586 203.358 C 297.051 204.386,296.510 205.360,296.384 205.523 C 296.258 205.686,295.691 206.671,295.125 207.713 C 294.133 209.540,288.945 219.008,287.415 221.786 C 287.005 222.530,286.415 223.566,286.104 224.087 C 285.793 224.608,285.276 225.577,284.955 226.242 C 284.635 226.906,284.095 227.890,283.755 228.427 C 283.416 228.965,282.566 230.491,281.867 231.820 C 281.168 233.148,280.500 234.357,280.382 234.506 C 280.264 234.655,279.682 235.690,279.089 236.806 C 278.496 237.923,277.693 239.384,277.305 240.054 C 276.917 240.724,276.472 241.562,276.317 241.916 C 276.162 242.271,275.807 242.881,275.528 243.273 C 275.249 243.664,274.478 245.018,273.813 246.282 C 271.262 251.135,270.283 252.924,269.965 253.315 C 269.783 253.539,269.253 254.498,268.786 255.448 C 268.320 256.397,267.828 257.311,267.694 257.477 C 267.560 257.644,266.931 258.755,266.296 259.946 C 265.661 261.137,265.039 262.244,264.914 262.407 C 264.789 262.570,264.241 263.544,263.697 264.572 C 263.153 265.600,262.536 266.746,262.327 267.118 C 261.658 268.306,259.713 271.901,258.488 274.214 C 257.835 275.446,257.089 276.759,256.831 277.131 C 256.572 277.503,255.785 278.904,255.081 280.244 C 254.378 281.583,253.707 282.801,253.589 282.950 C 253.471 283.099,252.956 284.012,252.445 284.980 C 251.933 285.947,251.111 287.470,250.619 288.363 C 249.778 289.888,249.243 290.872,247.092 294.858 C 246.610 295.751,246.001 296.786,245.740 297.158 C 245.478 297.530,245.001 298.383,244.680 299.053 C 244.358 299.723,243.864 300.636,243.583 301.083 C 243.301 301.529,242.501 302.991,241.805 304.330 C 241.108 305.670,240.383 306.949,240.193 307.172 C 240.003 307.395,239.771 307.830,239.677 308.138 C 239.584 308.446,239.123 309.299,238.653 310.033 C 238.184 310.766,237.212 312.524,236.495 313.938 C 235.777 315.352,234.877 316.783,234.494 317.118 L 233.799 317.727 211.374 317.727 L 188.949 317.727 188.115 316.673 C 187.656 316.093,187.280 315.431,187.280 315.200 C 187.280 314.970,187.166 314.711,187.027 314.625 C 186.887 314.539,186.603 314.136,186.396 313.729 C 186.189 313.323,185.427 311.894,184.704 310.555 C 183.981 309.215,183.039 307.449,182.611 306.631 C 182.183 305.812,181.578 304.716,181.266 304.195 C 180.954 303.674,180.185 302.273,179.556 301.083 C 175.058 292.562,173.761 290.161,172.988 288.920 C 172.012 287.354,172.098 286.247,173.358 284.163 C 173.945 283.193,174.662 281.914,174.953 281.322 C 175.243 280.729,175.629 280.061,175.811 279.838 C 176.127 279.449,177.320 277.298,178.663 274.696 C 179.008 274.026,179.906 272.442,180.658 271.177 C 181.409 269.912,182.375 268.174,182.805 267.315 C 183.235 266.455,183.747 265.618,183.945 265.455 C 184.142 265.291,184.303 264.994,184.303 264.794 C 184.303 264.377,186.736 260.262,187.063 260.126 C 187.183 260.077,187.286 259.833,187.293 259.585 C 187.300 259.337,187.730 258.403,188.248 257.510 C 188.767 256.617,189.631 255.008,190.169 253.934 C 191.168 251.937,191.958 250.880,192.448 250.880 C 192.883 250.880,194.317 252.575,194.317 253.089 C 194.317 253.345,194.431 253.624,194.570 253.711 C 194.710 253.797,194.998 254.200,195.211 254.606 C 197.447 258.873,198.224 260.281,198.543 260.644 C 198.749 260.879,198.917 261.151,198.917 261.248 C 198.917 261.345,199.422 262.249,200.039 263.256 C 200.655 264.264,201.673 266.062,202.299 267.253 C 202.926 268.444,203.716 269.905,204.056 270.501 C 204.396 271.096,204.909 272.009,205.197 272.530 C 205.485 273.051,205.954 273.843,206.240 274.290 C 206.526 274.736,206.834 275.284,206.924 275.507 C 207.310 276.459,207.997 277.818,208.155 277.943 C 208.250 278.018,208.725 278.840,209.212 279.770 C 210.273 281.799,210.636 281.866,211.416 280.176 C 211.743 279.469,212.474 278.147,213.041 277.237 C 213.609 276.328,214.073 275.508,214.073 275.415 C 214.073 275.322,214.531 274.483,215.092 273.550 C 215.652 272.617,216.387 271.306,216.726 270.636 C 217.449 269.204,217.932 268.388,218.166 268.200 C 218.259 268.126,218.889 267.011,219.567 265.723 C 220.245 264.435,221.113 262.885,221.496 262.278 C 221.879 261.671,222.192 261.091,222.192 260.989 C 222.192 260.887,222.722 259.940,223.370 258.886 C 224.017 257.832,224.622 256.786,224.714 256.563 C 224.806 256.340,225.242 255.548,225.682 254.804 C 226.123 254.060,226.812 252.842,227.214 252.097 C 227.615 251.353,228.159 250.439,228.422 250.067 C 228.685 249.694,229.476 248.293,230.181 246.954 C 230.886 245.615,231.538 244.459,231.631 244.384 C 231.724 244.310,232.041 243.762,232.336 243.166 C 232.934 241.958,234.398 239.451,234.628 239.242 C 234.710 239.168,235.018 238.620,235.314 238.024 C 235.609 237.429,236.205 236.333,236.638 235.589 C 237.070 234.844,237.747 233.627,238.142 232.882 C 239.124 231.030,239.588 230.262,239.986 229.829 C 240.173 229.626,240.325 229.287,240.325 229.074 C 240.325 228.861,240.447 228.687,240.595 228.687 C 240.744 228.687,240.866 228.468,240.866 228.200 C 240.866 227.932,241.002 227.577,241.168 227.411 C 241.513 227.066,241.809 226.563,242.754 224.719 C 243.123 223.999,243.863 222.679,244.398 221.786 C 245.423 220.075,247.530 216.395,248.658 214.344 C 249.027 213.674,249.422 213.004,249.536 212.855 C 249.650 212.706,250.319 211.488,251.022 210.149 C 251.725 208.809,252.540 207.374,252.832 206.960 C 253.125 206.546,253.760 205.448,254.244 204.519 C 254.728 203.591,255.448 202.318,255.844 201.691 C 256.239 201.065,256.563 200.449,256.563 200.324 C 256.563 199.676,258.515 197.418,259.182 197.294 C 260.660 197.019,299.717 197.330,300.066 197.619 M213.835 197.645 C 214.338 198.027,216.117 201.276,220.835 210.419 C 222.519 213.685,224.633 217.697,225.255 218.809 C 225.504 219.256,225.990 220.230,226.334 220.974 C 226.679 221.719,227.371 223.058,227.872 223.951 C 229.367 226.613,229.496 226.900,229.498 227.574 C 229.499 227.929,228.647 229.604,227.605 231.296 C 226.563 232.988,225.710 234.424,225.710 234.487 C 225.710 234.551,225.244 235.312,224.674 236.178 C 224.104 237.045,223.404 238.177,223.118 238.695 C 222.832 239.212,222.263 240.113,221.854 240.697 C 221.445 241.281,221.110 241.872,221.110 242.011 C 221.110 242.232,219.927 244.153,216.869 248.896 C 216.373 249.665,215.968 250.361,215.968 250.442 C 215.968 250.523,215.298 251.695,214.479 253.045 C 213.660 254.395,212.991 255.596,212.991 255.713 C 212.991 255.831,212.698 256.203,212.339 256.539 C 211.373 257.447,210.677 257.035,208.945 254.530 C 208.431 253.787,207.578 252.632,207.049 251.962 C 206.520 251.292,205.966 250.550,205.818 250.313 C 205.350 249.565,200.515 243.198,199.876 242.490 C 199.541 242.118,198.679 240.961,197.961 239.919 C 197.244 238.878,196.526 237.894,196.366 237.734 C 196.207 237.574,195.223 236.267,194.181 234.830 C 192.079 231.930,191.705 231.745,190.930 233.221 C 190.637 233.779,190.336 234.296,190.260 234.371 C 190.025 234.601,189.509 235.520,188.662 237.212 C 188.215 238.106,187.465 239.506,186.994 240.325 C 185.581 242.783,184.825 244.145,183.690 246.279 C 183.095 247.395,182.199 248.994,181.697 249.832 C 181.195 250.671,180.785 251.438,180.785 251.537 C 180.785 251.636,180.349 252.399,179.816 253.232 C 179.283 254.065,178.739 255.003,178.606 255.316 C 178.473 255.630,178.000 256.495,177.555 257.240 C 177.110 257.984,176.435 259.202,176.055 259.946 C 175.676 260.690,175.010 261.908,174.575 262.652 C 174.141 263.396,173.341 264.857,172.798 265.898 C 172.254 266.938,171.728 267.852,171.629 267.927 C 171.529 268.003,170.950 269.039,170.341 270.230 C 169.733 271.421,168.530 273.613,167.669 275.101 C 166.807 276.590,165.573 278.813,164.924 280.042 C 163.788 282.196,162.954 283.615,162.658 283.897 C 162.581 283.972,162.097 284.885,161.583 285.927 C 161.069 286.969,160.567 287.882,160.467 287.957 C 160.367 288.031,160.011 288.701,159.675 289.445 C 159.339 290.189,158.989 290.859,158.896 290.934 C 158.804 291.008,158.500 291.496,158.221 292.016 C 157.211 293.904,156.217 295.689,155.661 296.617 C 155.348 297.138,154.782 298.173,154.403 298.917 C 154.024 299.662,153.357 300.880,152.921 301.624 C 152.485 302.368,151.851 303.525,151.513 304.195 C 151.175 304.865,150.700 305.717,150.457 306.089 C 150.214 306.461,149.585 307.558,149.059 308.525 C 148.533 309.493,147.855 310.710,147.553 311.231 C 147.250 311.752,146.619 312.939,146.151 313.869 C 144.991 316.171,144.125 317.139,143.082 317.301 C 141.794 317.500,101.050 317.749,100.559 317.561 C 99.805 317.271,100.074 315.915,101.218 314.240 C 101.813 313.368,102.300 312.580,102.300 312.489 C 102.300 312.398,102.765 311.560,103.333 310.627 C 103.901 309.694,104.440 308.730,104.532 308.485 C 104.623 308.239,105.288 307.082,106.008 305.914 C 106.728 304.745,107.596 303.241,107.937 302.571 C 108.277 301.901,108.918 300.744,109.360 300.000 C 109.802 299.256,110.284 298.403,110.431 298.106 C 110.578 297.808,110.932 297.199,111.218 296.752 C 111.503 296.306,112.186 295.088,112.734 294.046 C 113.283 293.004,113.994 291.786,114.315 291.340 C 114.636 290.893,115.139 290.041,115.432 289.445 C 115.725 288.850,116.209 288.000,116.508 287.556 C 117.269 286.425,117.602 285.833,118.256 284.453 C 118.569 283.792,119.099 282.878,119.433 282.424 C 119.768 281.969,120.282 281.112,120.575 280.519 C 120.869 279.926,121.566 278.675,122.124 277.740 C 122.683 276.805,123.139 275.977,123.139 275.900 C 123.139 275.824,123.809 274.662,124.628 273.319 C 125.447 271.975,126.116 270.819,126.116 270.750 C 126.116 270.681,126.402 270.171,126.752 269.616 C 127.101 269.061,127.816 267.815,128.339 266.847 C 129.993 263.791,130.794 262.386,130.961 262.246 C 131.051 262.172,131.404 261.563,131.747 260.893 C 132.090 260.223,132.603 259.310,132.888 258.863 C 133.172 258.417,133.657 257.564,133.965 256.969 C 134.273 256.373,134.756 255.521,135.038 255.074 C 135.320 254.628,135.853 253.707,136.222 253.029 C 137.605 250.485,138.088 249.650,138.405 249.256 C 138.584 249.032,139.132 248.058,139.622 247.091 C 140.113 246.123,140.807 244.944,141.164 244.470 C 141.521 243.996,141.813 243.497,141.813 243.360 C 141.813 243.224,142.483 242.001,143.302 240.643 C 144.120 239.285,144.790 238.112,144.790 238.036 C 144.790 237.923,146.141 235.585,147.220 233.829 C 147.358 233.606,147.742 232.876,148.074 232.206 C 148.406 231.536,148.760 230.927,148.862 230.853 C 148.964 230.778,149.631 229.621,150.344 228.281 C 151.057 226.942,151.715 225.785,151.807 225.710 C 151.898 225.636,152.120 225.271,152.300 224.899 C 152.832 223.800,153.815 222.114,154.431 221.244 C 154.748 220.798,155.281 219.824,155.616 219.080 C 155.952 218.336,156.302 217.666,156.395 217.591 C 156.587 217.437,157.015 216.694,157.849 215.068 C 158.167 214.446,158.496 213.877,158.578 213.802 C 158.811 213.592,159.379 212.646,159.659 212.002 C 159.799 211.681,160.042 211.339,160.200 211.242 C 160.358 211.144,160.487 210.887,160.487 210.671 C 160.487 210.455,161.157 209.196,161.976 207.872 C 162.794 206.549,163.464 205.395,163.464 205.308 C 163.464 205.128,165.116 202.371,165.348 202.165 C 165.431 202.091,165.803 201.363,166.173 200.548 C 166.544 199.733,167.195 198.667,167.619 198.180 L 168.392 197.294 190.894 197.302 C 208.311 197.309,213.496 197.386,213.835 197.645 " stroke="none" fill="#040404" fill-rule="evenodd"></path><path id="path2" d="M259.182 197.294 C 258.515 197.418,256.563 199.676,256.563 200.324 C 256.563 200.449,256.239 201.065,255.844 201.691 C 255.448 202.318,254.728 203.591,254.244 204.519 C 253.760 205.448,253.125 206.546,252.832 206.960 C 252.540 207.374,251.725 208.809,251.022 210.149 C 250.319 211.488,249.650 212.706,249.536 212.855 C 249.422 213.004,249.027 213.674,248.658 214.344 C 247.530 216.395,245.423 220.075,244.398 221.786 C 243.863 222.679,243.123 223.999,242.754 224.719 C 241.809 226.563,241.513 227.066,241.168 227.411 C 241.002 227.577,240.866 227.932,240.866 228.200 C 240.866 228.468,240.744 228.687,240.595 228.687 C 240.447 228.687,240.325 228.861,240.325 229.074 C 240.325 229.287,240.173 229.626,239.986 229.829 C 239.588 230.262,239.124 231.030,238.142 232.882 C 237.747 233.627,237.070 234.844,236.638 235.589 C 236.205 236.333,235.609 237.429,235.314 238.024 C 235.018 238.620,234.710 239.168,234.628 239.242 C 234.398 239.451,232.934 241.958,232.336 243.166 C 232.041 243.762,231.724 244.310,231.631 244.384 C 231.538 244.459,230.886 245.615,230.181 246.954 C 229.476 248.293,228.685 249.694,228.422 250.067 C 228.159 250.439,227.615 251.353,227.214 252.097 C 226.812 252.842,226.123 254.060,225.682 254.804 C 225.242 255.548,224.806 256.340,224.714 256.563 C 224.622 256.786,224.017 257.832,223.370 258.886 C 222.722 259.940,222.192 260.887,222.192 260.989 C 222.192 261.091,221.879 261.671,221.496 262.278 C 221.113 262.885,220.245 264.435,219.567 265.723 C 218.889 267.011,218.259 268.126,218.166 268.200 C 217.932 268.388,217.449 269.204,216.726 270.636 C 216.387 271.306,215.652 272.617,215.092 273.550 C 214.531 274.483,214.073 275.322,214.073 275.415 C 214.073 275.508,213.609 276.328,213.041 277.237 C 212.474 278.147,211.743 279.469,211.416 280.176 C 210.636 281.866,210.273 281.799,209.212 279.770 C 208.725 278.840,208.250 278.018,208.155 277.943 C 207.997 277.818,207.310 276.459,206.924 275.507 C 206.834 275.284,206.526 274.736,206.240 274.290 C 205.954 273.843,205.485 273.051,205.197 272.530 C 204.909 272.009,204.396 271.096,204.056 270.501 C 203.716 269.905,202.926 268.444,202.299 267.253 C 201.673 266.062,200.655 264.264,200.039 263.256 C 199.422 262.249,198.917 261.345,198.917 261.248 C 198.917 261.151,198.749 260.879,198.543 260.644 C 198.224 260.281,197.447 258.873,195.211 254.606 C 194.998 254.200,194.710 253.797,194.570 253.711 C 194.431 253.624,194.317 253.345,194.317 253.089 C 194.317 252.575,192.883 250.880,192.448 250.880 C 191.958 250.880,191.168 251.937,190.168 253.934 C 189.630 255.008,188.753 256.656,188.219 257.596 C 187.684 258.537,187.286 259.423,187.334 259.566 C 187.382 259.709,187.819 259.061,188.306 258.127 C 189.581 255.678,191.404 252.411,191.911 251.665 C 192.521 250.768,192.832 251.093,194.861 254.744 C 195.789 256.414,197.590 259.608,198.863 261.840 C 200.136 264.073,201.441 266.387,201.763 266.982 C 202.085 267.578,202.856 268.959,203.475 270.051 C 204.094 271.144,204.601 272.090,204.601 272.154 C 204.601 272.218,204.893 272.734,205.251 273.300 C 205.608 273.867,206.448 275.356,207.117 276.610 C 209.454 280.991,209.789 281.598,209.991 281.809 C 210.444 282.282,211.176 281.564,211.964 279.870 C 212.422 278.885,212.950 277.896,213.137 277.673 C 213.325 277.449,214.058 276.171,214.766 274.831 C 215.475 273.491,216.279 272.072,216.553 271.677 C 216.826 271.282,217.050 270.866,217.050 270.752 C 217.050 270.639,217.578 269.683,218.224 268.629 C 218.869 267.574,220.345 265.007,221.503 262.923 C 222.661 260.839,223.810 258.829,224.056 258.457 C 224.302 258.085,224.856 257.111,225.287 256.292 C 225.718 255.474,226.982 253.221,228.097 251.286 C 229.212 249.350,230.222 247.585,230.342 247.361 C 230.462 247.138,231.499 245.311,232.646 243.302 C 233.792 241.292,235.090 238.978,235.529 238.160 C 236.286 236.747,236.906 235.655,239.442 231.258 C 240.043 230.217,240.869 228.755,241.278 228.011 C 241.687 227.267,242.115 226.536,242.231 226.387 C 242.346 226.238,242.849 225.325,243.350 224.357 C 243.850 223.390,244.792 221.685,245.443 220.568 C 247.685 216.727,249.443 213.661,250.878 211.096 C 251.669 209.682,252.772 207.733,253.329 206.766 C 255.464 203.057,255.763 202.524,256.586 200.947 C 257.053 200.054,257.732 198.928,258.095 198.444 L 258.756 197.564 279.183 197.564 C 301.452 197.564,300.559 197.500,299.582 199.021 C 299.242 199.550,298.454 200.988,294.774 207.794 C 294.026 209.178,293.300 210.457,293.161 210.636 C 293.023 210.815,292.201 212.300,291.336 213.938 C 288.522 219.265,288.178 219.886,287.794 220.319 C 287.586 220.554,287.415 220.813,287.415 220.895 C 287.415 220.977,286.850 222.063,286.159 223.309 C 285.467 224.556,284.443 226.444,283.882 227.505 C 283.321 228.566,282.547 229.934,282.162 230.544 C 281.777 231.154,281.461 231.749,281.461 231.866 C 281.461 231.983,280.963 232.930,280.354 233.969 C 279.745 235.009,278.824 236.651,278.307 237.618 C 277.790 238.586,277.122 239.804,276.822 240.325 C 276.522 240.846,275.633 242.429,274.847 243.843 C 274.061 245.257,272.466 248.119,271.303 250.203 C 270.140 252.287,268.709 254.905,268.124 256.022 C 267.538 257.138,266.964 258.173,266.849 258.322 C 266.336 258.982,264.379 262.881,264.743 262.517 C 264.967 262.294,265.667 261.137,266.300 259.946 C 266.933 258.755,267.560 257.644,267.694 257.477 C 267.828 257.311,268.320 256.397,268.786 255.448 C 269.253 254.498,269.783 253.539,269.965 253.315 C 270.283 252.924,271.262 251.135,273.813 246.282 C 274.478 245.018,275.249 243.664,275.528 243.273 C 275.807 242.881,276.162 242.271,276.317 241.916 C 276.472 241.562,276.917 240.724,277.305 240.054 C 277.693 239.384,278.496 237.923,279.089 236.806 C 279.682 235.690,280.264 234.655,280.382 234.506 C 280.500 234.357,281.168 233.148,281.867 231.820 C 282.566 230.491,283.416 228.965,283.755 228.427 C 284.095 227.890,284.635 226.906,284.955 226.242 C 285.276 225.577,285.793 224.608,286.104 224.087 C 286.415 223.566,287.005 222.530,287.415 221.786 C 288.945 219.008,294.133 209.540,295.125 207.713 C 295.691 206.671,296.258 205.686,296.384 205.523 C 296.510 205.360,297.051 204.386,297.586 203.358 C 298.120 202.330,298.974 200.803,299.482 199.965 C 300.502 198.283,300.564 198.032,300.066 197.619 C 299.717 197.330,260.660 197.019,259.182 197.294 M167.619 198.180 C 167.195 198.667,166.544 199.733,166.173 200.548 C 165.803 201.363,165.431 202.091,165.348 202.165 C 165.116 202.371,163.464 205.128,163.464 205.308 C 163.464 205.395,162.794 206.549,161.976 207.872 C 161.157 209.196,160.487 210.455,160.487 210.671 C 160.487 210.887,160.358 211.144,160.200 211.242 C 160.042 211.339,159.799 211.681,159.659 212.002 C 159.379 212.646,158.811 213.592,158.578 213.802 C 158.496 213.877,158.167 214.446,157.849 215.068 C 157.015 216.694,156.587 217.437,156.395 217.591 C 156.302 217.666,155.952 218.336,155.616 219.080 C 155.281 219.824,154.748 220.798,154.431 221.244 C 153.815 222.114,152.832 223.800,152.300 224.899 C 152.120 225.271,151.898 225.636,151.807 225.710 C 151.715 225.785,151.057 226.942,150.344 228.281 C 149.631 229.621,148.964 230.778,148.862 230.853 C 148.760 230.927,148.406 231.536,148.074 232.206 C 147.742 232.876,147.358 233.606,147.220 233.829 C 146.141 235.585,144.790 237.923,144.790 238.036 C 144.790 238.112,144.120 239.285,143.302 240.643 C 142.483 242.001,141.813 243.224,141.813 243.360 C 141.813 243.497,141.521 243.996,141.164 244.470 C 140.807 244.944,140.113 246.123,139.622 247.091 C 139.132 248.058,138.584 249.032,138.405 249.256 C 138.088 249.650,137.605 250.485,136.222 253.029 C 135.853 253.707,135.320 254.628,135.038 255.074 C 134.756 255.521,134.273 256.373,133.965 256.969 C 133.657 257.564,133.172 258.417,132.888 258.863 C 132.603 259.310,132.090 260.223,131.747 260.893 C 131.404 261.563,131.051 262.172,130.961 262.246 C 130.794 262.386,129.993 263.791,128.339 266.847 C 127.816 267.815,127.101 269.061,126.752 269.616 C 126.402 270.171,126.116 270.681,126.116 270.750 C 126.116 270.819,125.447 271.975,124.628 273.319 C 123.809 274.662,123.139 275.824,123.139 275.900 C 123.139 275.977,122.683 276.805,122.124 277.740 C 121.566 278.675,120.869 279.926,120.575 280.519 C 120.282 281.112,119.768 281.969,119.433 282.424 C 119.099 282.878,118.569 283.792,118.256 284.453 C 117.602 285.833,117.269 286.425,116.508 287.556 C 116.209 288.000,115.725 288.850,115.432 289.445 C 115.139 290.041,114.636 290.893,114.315 291.340 C 113.994 291.786,113.283 293.004,112.734 294.046 C 112.186 295.088,111.503 296.306,111.218 296.752 C 110.932 297.199,110.578 297.808,110.431 298.106 C 110.284 298.403,109.802 299.256,109.360 300.000 C 108.918 300.744,108.277 301.901,107.937 302.571 C 107.596 303.241,106.728 304.745,106.008 305.914 C 105.288 307.082,104.623 308.239,104.532 308.485 C 104.440 308.730,103.901 309.694,103.333 310.627 C 102.765 311.560,102.300 312.398,102.300 312.489 C 102.300 312.580,101.813 313.368,101.218 314.240 C 100.074 315.915,99.805 317.271,100.559 317.561 C 101.050 317.749,141.794 317.500,143.082 317.301 C 144.125 317.139,144.991 316.171,146.151 313.869 C 146.619 312.939,147.250 311.752,147.553 311.231 C 147.855 310.710,148.533 309.493,149.059 308.525 C 149.585 307.558,150.214 306.461,150.457 306.089 C 150.700 305.717,151.175 304.865,151.513 304.195 C 151.851 303.525,152.485 302.368,152.921 301.624 C 153.357 300.880,154.024 299.662,154.403 298.917 C 154.782 298.173,155.348 297.138,155.661 296.617 C 156.217 295.689,157.211 293.904,158.221 292.016 C 158.500 291.496,158.804 291.008,158.896 290.934 C 158.989 290.859,159.339 290.189,159.675 289.445 C 160.011 288.701,160.367 288.031,160.467 287.957 C 160.567 287.882,161.069 286.969,161.583 285.927 C 162.097 284.885,162.581 283.972,162.658 283.897 C 162.954 283.615,163.788 282.196,164.924 280.042 C 165.573 278.813,166.807 276.590,167.669 275.101 C 168.530 273.613,169.733 271.421,170.341 270.230 C 170.950 269.039,171.529 268.003,171.629 267.927 C 171.728 267.852,172.254 266.938,172.798 265.898 C 173.341 264.857,174.141 263.396,174.575 262.652 C 175.010 261.908,175.676 260.690,176.055 259.946 C 176.435 259.202,177.110 257.984,177.555 257.240 C 178.000 256.495,178.473 255.630,178.606 255.316 C 178.739 255.003,179.283 254.065,179.816 253.232 C 180.349 252.399,180.785 251.636,180.785 251.537 C 180.785 251.438,181.195 250.671,181.697 249.832 C 182.199 248.994,183.095 247.395,183.690 246.279 C 184.825 244.145,185.581 242.783,186.994 240.325 C 187.465 239.506,188.215 238.106,188.662 237.212 C 189.509 235.520,190.025 234.601,190.260 234.371 C 190.336 234.296,190.637 233.779,190.930 233.221 C 191.705 231.745,192.079 231.930,194.181 234.830 C 195.223 236.267,196.207 237.574,196.366 237.734 C 196.526 237.894,197.244 238.878,197.961 239.919 C 198.679 240.961,199.541 242.118,199.876 242.490 C 200.515 243.198,205.350 249.565,205.818 250.313 C 205.966 250.550,206.520 251.292,207.049 251.962 C 207.578 252.632,208.431 253.787,208.945 254.530 C 210.677 257.035,211.373 257.447,212.339 256.539 C 212.698 256.203,212.991 255.831,212.991 255.713 C 212.991 255.596,213.660 254.395,214.479 253.045 C 215.298 251.695,215.968 250.523,215.968 250.442 C 215.968 250.361,216.373 249.665,216.869 248.896 C 219.927 244.153,221.110 242.232,221.110 242.011 C 221.110 241.872,221.445 241.281,221.854 240.697 C 222.263 240.113,222.832 239.212,223.118 238.695 C 223.404 238.177,224.104 237.045,224.674 236.178 C 225.244 235.312,225.710 234.551,225.710 234.487 C 225.710 234.424,226.563 232.988,227.605 231.296 C 230.003 227.402,230.002 227.692,227.631 223.545 C 227.163 222.727,226.578 221.576,226.330 220.989 C 226.082 220.401,225.601 219.427,225.261 218.823 C 224.921 218.220,224.145 216.725,223.538 215.501 C 222.930 214.277,222.316 213.202,222.173 213.114 C 221.897 212.944,222.472 214.297,223.442 216.103 C 223.761 216.698,225.083 219.256,226.379 221.786 C 227.675 224.317,228.846 226.503,228.982 226.644 C 229.660 227.351,229.543 227.574,221.606 240.595 C 217.930 246.627,215.186 251.189,213.507 254.059 C 211.743 257.076,211.288 257.237,209.940 255.318 C 209.460 254.634,206.852 251.132,204.145 247.538 C 201.439 243.943,198.942 240.598,198.597 240.106 C 198.252 239.613,197.792 239.017,197.573 238.781 C 197.141 238.313,193.350 233.229,192.669 232.203 C 191.889 231.030,191.194 231.785,188.688 236.522 C 188.014 237.795,186.609 240.359,185.565 242.219 C 184.521 244.080,183.308 246.272,182.870 247.091 C 182.432 247.909,181.979 248.701,181.864 248.850 C 181.748 248.999,181.071 250.217,180.359 251.556 C 179.648 252.896,178.782 254.446,178.437 255.001 C 178.091 255.557,177.808 256.077,177.808 256.157 C 177.808 256.237,177.525 256.757,177.179 257.313 C 176.833 257.868,175.905 259.540,175.116 261.028 C 174.327 262.517,173.587 263.857,173.472 264.005 C 173.358 264.154,172.963 264.824,172.596 265.494 C 172.229 266.164,171.561 267.382,171.111 268.200 C 170.661 269.019,169.915 270.390,169.452 271.246 C 168.990 272.102,168.326 273.259,167.976 273.817 C 167.626 274.375,166.629 276.171,165.759 277.808 C 164.889 279.445,163.713 281.548,163.144 282.481 C 162.576 283.414,162.111 284.219,162.111 284.270 C 162.111 284.322,161.611 285.263,160.999 286.363 C 160.388 287.463,159.368 289.337,158.733 290.528 C 158.097 291.719,156.874 293.911,156.014 295.399 C 155.154 296.888,153.995 298.958,153.439 300.000 C 152.882 301.042,151.947 302.747,151.360 303.789 C 147.201 311.173,146.395 312.629,145.665 314.073 C 145.214 314.966,144.518 316.001,144.119 316.373 L 143.394 317.050 122.509 317.185 C 97.933 317.345,99.620 317.543,101.338 314.694 C 101.851 313.845,102.562 312.627,102.920 311.988 C 103.277 311.348,104.546 309.120,105.739 307.037 C 106.933 304.953,108.637 301.969,109.527 300.406 C 110.416 298.843,111.834 296.373,112.676 294.916 C 113.519 293.459,114.208 292.190,114.208 292.096 C 114.208 292.001,114.375 291.731,114.580 291.496 C 114.784 291.261,115.348 290.338,115.833 289.445 C 116.319 288.552,117.109 287.152,117.590 286.333 C 119.679 282.775,120.874 280.670,121.740 279.026 C 122.249 278.058,122.810 277.084,122.987 276.861 C 123.163 276.637,123.715 275.663,124.212 274.696 C 124.710 273.728,125.324 272.632,125.576 272.260 C 125.829 271.888,126.862 270.122,127.872 268.336 C 128.882 266.549,130.685 263.383,131.878 261.299 C 133.072 259.215,134.258 257.138,134.514 256.683 C 136.301 253.508,137.723 251.050,138.613 249.601 C 139.183 248.674,139.648 247.832,139.648 247.729 C 139.648 247.626,140.182 246.679,140.835 245.625 C 141.487 244.570,142.353 243.038,142.759 242.219 C 143.165 241.401,143.788 240.343,144.144 239.869 C 144.499 239.395,144.790 238.930,144.790 238.835 C 144.790 238.629,147.831 233.237,149.692 230.142 C 150.420 228.933,151.015 227.885,151.015 227.813 C 151.015 227.682,151.807 226.289,155.750 219.486 C 156.914 217.476,158.171 215.284,158.543 214.614 C 158.916 213.945,159.482 212.970,159.802 212.449 C 160.122 211.928,160.775 210.741,161.253 209.811 C 161.731 208.880,162.807 206.993,163.643 205.616 C 164.479 204.239,165.713 202.077,166.384 200.812 C 167.056 199.547,167.788 198.298,168.012 198.038 C 168.501 197.470,212.509 197.288,213.559 197.849 C 213.852 198.006,214.435 198.828,214.856 199.676 C 215.276 200.524,216.295 202.497,217.119 204.060 C 217.944 205.622,219.256 208.119,220.036 209.608 C 220.816 211.096,221.574 212.436,221.721 212.585 C 222.091 212.959,221.981 212.702,220.614 210.014 C 216.902 202.713,214.332 198.023,213.835 197.645 C 213.496 197.386,208.311 197.309,190.894 197.302 L 168.392 197.294 167.619 198.180 M185.579 262.291 C 184.866 263.499,184.324 264.608,184.372 264.755 C 184.421 264.902,184.850 264.306,185.324 263.431 C 185.799 262.556,186.445 261.445,186.760 260.961 C 187.075 260.477,187.230 260.084,187.104 260.088 C 186.977 260.092,186.291 261.083,185.579 262.291 M263.048 265.142 C 262.413 266.303,261.534 267.923,261.093 268.742 C 260.185 270.430,258.157 274.067,256.340 277.267 C 255.664 278.457,254.763 280.101,254.337 280.920 C 253.912 281.739,253.446 282.591,253.303 282.815 C 253.160 283.038,251.238 286.509,249.032 290.528 C 246.826 294.547,244.677 298.444,244.257 299.188 C 243.837 299.932,242.795 301.820,241.941 303.383 C 238.548 309.590,238.155 310.299,237.893 310.690 C 237.744 310.913,237.025 312.253,236.297 313.667 C 235.569 315.081,234.732 316.455,234.439 316.720 C 233.606 317.471,189.335 317.475,188.608 316.724 C 188.165 316.266,187.553 315.205,185.519 311.367 C 185.045 310.474,183.828 308.221,182.814 306.360 C 179.775 300.783,178.685 298.750,177.588 296.617 C 176.409 294.324,174.159 290.194,173.755 289.581 C 173.608 289.357,173.228 288.634,172.912 287.974 L 172.336 286.774 172.922 285.674 C 173.245 285.069,174.092 283.539,174.804 282.273 C 178.783 275.210,178.580 275.603,178.079 275.913 C 177.930 276.005,177.502 276.730,177.126 277.524 C 176.750 278.318,176.228 279.255,175.966 279.606 C 175.704 279.957,175.250 280.729,174.957 281.322 C 174.665 281.914,173.945 283.193,173.358 284.163 C 172.098 286.247,172.012 287.354,172.988 288.920 C 173.761 290.161,175.058 292.562,179.556 301.083 C 180.185 302.273,180.954 303.674,181.266 304.195 C 181.578 304.716,182.183 305.812,182.611 306.631 C 183.039 307.449,183.981 309.215,184.704 310.555 C 185.427 311.894,186.189 313.323,186.396 313.729 C 186.603 314.136,186.887 314.539,187.027 314.625 C 187.166 314.711,187.280 314.970,187.280 315.200 C 187.280 315.431,187.656 316.093,188.115 316.673 L 188.949 317.727 211.374 317.727 L 233.799 317.727 234.494 317.118 C 234.877 316.783,235.777 315.352,236.495 313.938 C 237.212 312.524,238.184 310.766,238.653 310.033 C 239.123 309.299,239.584 308.446,239.677 308.138 C 239.771 307.830,240.003 307.395,240.193 307.172 C 240.383 306.949,241.108 305.670,241.805 304.330 C 242.501 302.991,243.301 301.529,243.583 301.083 C 243.864 300.636,244.358 299.723,244.680 299.053 C 245.001 298.383,245.478 297.530,245.740 297.158 C 246.001 296.786,246.610 295.751,247.092 294.858 C 249.243 290.872,249.778 289.888,250.619 288.363 C 251.111 287.470,251.933 285.947,252.445 284.980 C 252.956 284.012,253.471 283.099,253.589 282.950 C 253.707 282.801,254.378 281.583,255.081 280.244 C 255.785 278.904,256.572 277.503,256.831 277.131 C 257.089 276.759,257.835 275.446,258.488 274.214 C 259.515 272.276,261.028 269.470,262.317 267.118 C 262.520 266.746,263.085 265.730,263.571 264.861 C 264.056 263.992,264.398 263.225,264.328 263.156 C 264.259 263.087,263.683 263.980,263.048 265.142 M183.827 265.555 C 183.671 265.745,183.056 266.829,182.459 267.965 C 181.862 269.101,181.075 270.504,180.709 271.082 C 179.741 272.617,178.329 275.307,178.437 275.415 C 178.487 275.465,179.574 273.650,180.851 271.380 C 182.128 269.110,183.431 266.842,183.748 266.339 C 184.318 265.434,184.373 264.889,183.827 265.555 " stroke="none" fill="#565656" fill-rule="evenodd"></path><path id="path3" d="M168.157 198.173 C 167.858 198.508,166.692 200.426,165.565 202.436 C 164.439 204.445,162.881 207.185,162.103 208.525 C 161.325 209.865,159.830 212.483,158.781 214.344 C 157.731 216.204,156.426 218.518,155.880 219.486 C 155.334 220.453,153.488 223.681,151.778 226.658 C 150.068 229.635,148.533 232.314,148.368 232.612 C 148.203 232.909,147.513 234.095,146.835 235.246 C 146.157 236.397,145.602 237.407,145.602 237.491 C 145.602 237.576,145.187 238.294,144.679 239.088 C 144.171 239.882,143.310 241.368,142.766 242.390 C 142.222 243.413,141.052 245.467,140.166 246.955 C 139.279 248.444,138.238 250.271,137.852 251.015 C 137.466 251.759,136.574 253.342,135.870 254.533 C 135.166 255.724,133.810 258.070,132.857 259.748 C 131.903 261.425,130.298 264.226,129.290 265.972 C 128.282 267.719,127.345 269.413,127.207 269.737 C 127.069 270.061,126.333 271.321,125.570 272.538 C 124.808 273.755,124.109 274.951,124.018 275.196 C 123.926 275.442,123.386 276.406,122.819 277.339 C 122.251 278.272,121.786 279.096,121.786 279.171 C 121.786 279.246,121.492 279.774,121.131 280.344 C 120.771 280.915,119.844 282.526,119.070 283.925 C 118.297 285.324,116.843 287.869,115.839 289.581 C 114.835 291.292,113.217 294.099,112.244 295.817 C 111.270 297.535,110.197 299.423,109.859 300.012 C 109.522 300.601,108.801 301.874,108.258 302.842 C 106.267 306.389,102.746 312.502,101.581 314.437 C 100.710 315.883,100.460 316.518,100.664 316.764 C 101.083 317.269,143.051 317.016,143.866 316.504 C 144.176 316.309,145.406 314.343,146.599 312.134 C 147.792 309.926,149.801 306.292,151.063 304.060 C 152.325 301.827,153.888 299.026,154.535 297.835 C 155.182 296.644,156.299 294.648,157.017 293.398 C 157.735 292.149,158.322 291.083,158.322 291.029 C 158.322 290.921,161.974 284.273,162.388 283.627 C 162.531 283.403,163.106 282.393,163.665 281.382 C 164.224 280.370,165.455 278.178,166.399 276.510 C 167.344 274.842,168.600 272.574,169.191 271.470 C 170.853 268.363,171.846 266.593,172.978 264.722 C 173.551 263.776,174.019 262.969,174.019 262.929 C 174.019 262.832,180.312 251.402,181.324 249.662 C 181.583 249.215,182.158 248.180,182.601 247.361 C 183.045 246.543,184.357 244.168,185.517 242.084 C 186.677 240.000,188.078 237.442,188.630 236.401 C 191.150 231.646,191.874 230.936,192.834 232.273 C 193.075 232.608,195.285 235.562,197.745 238.836 C 200.206 242.111,203.881 247.035,205.913 249.779 C 211.924 257.895,211.311 257.611,213.769 253.417 C 215.693 250.134,218.281 245.828,219.197 244.384 C 220.491 242.345,228.449 229.139,228.844 228.375 C 229.230 227.628,229.223 227.488,228.745 226.570 C 228.460 226.023,226.914 223.018,225.309 219.892 C 223.704 216.766,221.451 212.442,220.301 210.284 C 219.151 208.126,217.271 204.565,216.123 202.370 C 214.975 200.176,213.773 198.197,213.453 197.972 C 212.945 197.617,210.030 197.564,190.785 197.564 L 168.701 197.564 168.157 198.173 M258.444 198.173 C 258.128 198.508,257.618 199.269,257.312 199.865 C 257.006 200.460,256.103 202.078,255.306 203.460 C 254.509 204.842,253.857 206.051,253.857 206.145 C 253.857 206.240,253.687 206.510,253.479 206.745 C 253.272 206.980,252.610 208.101,252.009 209.236 C 251.407 210.372,249.488 213.782,247.743 216.814 C 245.998 219.847,244.207 222.997,243.762 223.816 C 243.317 224.635,242.864 225.426,242.756 225.575 C 242.647 225.724,242.131 226.645,241.608 227.621 C 241.086 228.598,239.685 231.095,238.496 233.169 C 237.307 235.244,235.984 237.571,235.555 238.339 C 234.391 240.430,232.393 243.919,232.077 244.414 C 231.925 244.653,231.389 245.627,230.887 246.579 C 230.385 247.530,229.333 249.405,228.549 250.744 C 226.354 254.494,223.944 258.724,221.378 263.329 C 218.421 268.638,215.761 273.324,213.899 276.506 C 213.099 277.873,212.219 279.519,211.943 280.163 C 210.905 282.584,210.143 282.532,208.776 279.948 C 206.873 276.353,205.901 274.584,202.986 269.418 C 197.527 259.744,197.233 259.239,197.123 259.350 C 197.006 259.467,199.218 263.569,199.999 264.682 C 200.260 265.054,200.923 266.211,201.472 267.253 C 203.153 270.441,203.896 271.786,204.910 273.478 C 205.445 274.371,206.645 276.563,207.575 278.349 C 210.373 283.721,210.779 283.742,213.019 278.628 C 213.273 278.048,213.845 277.088,214.073 276.861 C 214.231 276.703,214.557 276.129,215.861 273.713 C 216.385 272.743,217.497 270.772,218.334 269.331 C 219.909 266.619,220.441 265.671,221.928 262.928 C 222.411 262.037,223.072 260.880,223.398 260.357 C 223.724 259.833,224.075 259.222,224.178 258.999 C 224.280 258.775,224.732 257.984,225.181 257.240 C 225.631 256.495,226.074 255.704,226.166 255.480 C 226.257 255.257,226.862 254.212,227.510 253.157 C 228.158 252.103,228.687 251.156,228.687 251.053 C 228.687 250.950,229.175 250.095,229.770 249.152 C 230.365 248.209,230.853 247.369,230.853 247.285 C 230.853 247.201,231.480 246.057,232.248 244.743 C 234.530 240.837,235.604 238.944,236.674 236.942 C 237.230 235.900,237.779 234.926,237.893 234.777 C 238.007 234.628,238.679 233.471,239.386 232.206 C 240.094 230.940,241.154 229.053,241.743 228.011 C 242.332 226.969,243.307 225.203,243.909 224.087 C 244.512 222.970,245.170 221.865,245.371 221.630 C 245.573 221.395,245.737 221.140,245.737 221.065 C 245.737 220.989,247.260 218.267,249.120 215.015 C 250.981 211.763,252.503 209.020,252.503 208.919 C 252.503 208.818,252.812 208.281,253.190 207.724 C 253.567 207.168,254.317 205.903,254.855 204.913 C 255.394 203.922,256.040 202.808,256.291 202.436 C 256.543 202.064,257.091 201.049,257.510 200.182 C 258.770 197.571,256.851 197.773,279.321 197.878 C 300.506 197.977,299.856 197.929,298.955 199.304 C 298.720 199.663,297.954 201.032,297.254 202.347 C 296.553 203.661,295.697 205.190,295.351 205.746 C 295.006 206.301,294.723 206.828,294.723 206.918 C 294.723 207.008,294.274 207.832,293.727 208.750 C 293.179 209.668,292.258 211.330,291.679 212.443 C 291.101 213.555,290.530 214.590,290.409 214.743 C 290.289 214.895,289.664 216.055,289.021 217.321 C 288.378 218.586,287.710 219.804,287.536 220.027 C 287.362 220.250,286.634 221.529,285.918 222.869 C 285.202 224.208,284.029 226.370,283.310 227.673 C 282.591 228.975,281.416 231.106,280.698 232.409 C 279.980 233.711,278.686 236.055,277.820 237.618 C 276.955 239.181,275.822 241.252,275.302 242.219 C 274.782 243.187,274.264 244.100,274.151 244.249 C 274.038 244.398,273.372 245.616,272.670 246.955 C 271.968 248.295,271.299 249.513,271.183 249.662 C 271.066 249.811,270.611 250.602,270.171 251.421 C 269.732 252.240,268.784 254.005,268.066 255.345 C 267.347 256.685,266.552 258.085,266.299 258.457 C 266.045 258.829,265.389 259.986,264.840 261.028 C 264.292 262.070,263.727 263.106,263.586 263.329 C 263.101 264.091,259.540 270.657,259.540 270.787 C 259.540 270.859,259.226 271.414,258.843 272.021 C 258.460 272.628,257.620 274.117,256.977 275.331 C 256.334 276.544,255.308 278.388,254.697 279.427 C 254.086 280.467,253.586 281.432,253.586 281.571 C 253.586 281.711,253.421 282.017,253.220 282.252 C 253.019 282.487,252.361 283.593,251.758 284.709 C 251.155 285.825,250.193 287.592,249.620 288.635 C 249.048 289.677,248.336 291.017,248.038 291.612 C 247.740 292.206,247.426 292.754,247.340 292.828 C 247.254 292.903,247.003 293.329,246.781 293.775 C 246.236 294.877,244.631 297.771,244.380 298.106 C 244.269 298.254,243.817 299.046,243.375 299.865 C 242.934 300.683,241.839 302.693,240.942 304.330 C 240.045 305.968,238.852 308.160,238.291 309.202 C 237.729 310.244,237.122 311.279,236.941 311.502 C 236.761 311.725,236.167 312.846,235.623 313.993 C 234.083 317.237,236.625 316.927,211.693 316.908 C 189.836 316.892,188.793 316.847,188.441 315.904 C 188.343 315.641,187.827 314.696,187.294 313.802 C 186.761 312.909,185.864 311.265,185.299 310.149 C 184.734 309.032,184.057 307.754,183.794 307.307 C 183.531 306.861,182.546 305.034,181.605 303.248 C 180.664 301.461,179.802 299.878,179.688 299.729 C 179.574 299.581,178.759 298.058,177.877 296.346 C 176.994 294.635,175.993 292.747,175.652 292.152 C 172.766 287.115,172.643 286.731,173.482 285.386 C 173.761 284.939,174.155 284.269,174.359 283.897 C 175.825 281.224,176.556 279.935,176.740 279.700 C 176.858 279.549,177.442 278.489,178.038 277.344 C 179.029 275.441,179.793 274.081,182.266 269.824 C 182.741 269.005,183.338 267.909,183.593 267.388 C 183.847 266.867,184.310 266.015,184.621 265.494 C 184.933 264.973,185.549 263.877,185.992 263.058 C 186.434 262.240,186.924 261.412,187.081 261.220 C 187.237 261.028,187.810 259.992,188.353 258.920 C 190.252 255.170,192.289 251.693,192.538 251.776 C 192.676 251.821,192.920 252.091,193.079 252.374 C 193.239 252.657,193.665 253.381,194.026 253.982 C 194.386 254.583,195.084 255.888,195.576 256.882 C 196.067 257.875,196.610 258.775,196.781 258.881 C 197.206 259.144,197.161 259.049,194.898 254.990 C 192.597 250.861,192.372 250.739,191.206 252.978 C 190.061 255.174,187.920 259.093,186.733 261.164 C 186.178 262.131,185.083 264.080,184.300 265.494 C 183.014 267.813,181.404 270.680,179.899 273.327 C 179.598 273.856,178.653 275.568,177.799 277.131 C 175.416 281.493,174.192 283.654,173.395 284.907 C 172.343 286.559,172.451 287.093,174.608 290.894 C 175.676 292.776,177.076 295.352,177.717 296.617 C 178.359 297.882,179.412 299.892,180.056 301.083 C 180.701 302.273,181.818 304.344,182.540 305.683 C 183.262 307.023,184.136 308.573,184.483 309.129 C 184.831 309.684,185.115 310.217,185.115 310.314 C 185.115 310.710,188.437 316.534,188.841 316.847 C 189.389 317.272,232.831 317.346,233.940 316.924 C 234.427 316.739,234.980 315.973,235.845 314.286 C 236.516 312.978,237.442 311.238,237.903 310.419 C 240.309 306.147,246.995 294.091,248.184 291.881 C 248.959 290.441,250.319 287.985,252.458 284.168 C 252.833 283.498,253.770 281.793,254.539 280.379 C 255.309 278.965,256.788 276.286,257.826 274.425 C 258.863 272.564,260.238 270.068,260.879 268.877 C 261.521 267.686,262.585 265.760,263.244 264.597 C 263.902 263.434,264.941 261.547,265.553 260.402 C 266.164 259.258,266.949 257.868,267.297 257.313 C 267.645 256.757,267.930 256.246,267.930 256.177 C 267.930 256.107,268.338 255.344,268.838 254.480 C 269.337 253.616,270.145 252.179,270.634 251.286 C 271.458 249.779,273.013 246.937,275.744 241.949 C 276.355 240.832,276.973 239.736,277.118 239.513 C 277.263 239.290,277.980 238.011,278.713 236.671 C 279.446 235.332,280.646 233.139,281.381 231.800 C 282.116 230.460,283.308 228.268,284.031 226.928 C 284.754 225.589,285.629 224.038,285.975 223.483 C 286.321 222.928,286.604 222.416,286.604 222.345 C 286.604 222.274,286.986 221.571,287.454 220.783 C 288.461 219.086,289.079 217.957,291.275 213.802 C 292.180 212.091,293.124 210.386,293.374 210.014 C 293.623 209.641,294.235 208.545,294.734 207.578 C 295.233 206.610,295.841 205.514,296.086 205.142 C 297.662 202.741,299.893 198.019,299.553 197.804 C 299.352 197.677,290.150 197.571,279.104 197.568 L 259.020 197.564 258.444 198.173 M213.455 198.451 C 213.950 198.944,215.361 201.451,217.298 205.277 C 217.900 206.468,219.050 208.660,219.854 210.149 C 220.657 211.637,222.348 214.865,223.610 217.321 C 224.873 219.777,226.595 223.090,227.436 224.684 L 228.966 227.582 227.872 229.420 C 227.270 230.431,226.664 231.441,226.525 231.664 C 226.387 231.888,225.701 233.042,225.002 234.229 C 224.303 235.416,223.385 236.865,222.962 237.449 C 222.538 238.033,222.192 238.610,222.192 238.730 C 222.192 238.911,221.318 240.358,218.126 245.467 C 216.608 247.897,214.073 252.273,214.073 252.464 C 214.073 252.598,213.912 252.842,213.715 253.005 C 213.517 253.169,213.016 253.976,212.600 254.798 C 211.524 256.925,211.657 257.011,207.789 251.691 C 206.435 249.831,204.978 247.882,204.549 247.361 C 203.602 246.209,203.712 246.352,201.741 243.732 C 200.858 242.557,199.784 241.097,199.355 240.487 C 198.926 239.877,198.485 239.317,198.375 239.242 C 198.265 239.168,197.880 238.681,197.521 238.160 C 194.898 234.354,192.302 231.123,191.869 231.123 C 191.440 231.123,190.257 232.399,190.257 232.862 C 190.257 232.953,189.972 233.483,189.624 234.038 C 189.276 234.593,188.440 236.083,187.766 237.348 C 185.649 241.324,183.453 245.321,183.231 245.602 C 183.114 245.751,182.568 246.725,182.018 247.767 C 181.468 248.809,180.658 250.271,180.217 251.015 C 179.777 251.759,179.296 252.612,179.150 252.909 C 179.004 253.207,178.654 253.828,178.374 254.290 C 177.797 255.239,176.315 257.940,174.813 260.778 C 174.256 261.831,173.302 263.508,172.692 264.504 C 172.082 265.500,171.583 266.355,171.583 266.405 C 171.583 266.539,167.767 273.436,167.520 273.748 C 167.402 273.897,166.818 274.947,166.222 276.081 C 165.626 277.215,164.579 279.129,163.896 280.334 C 163.212 281.539,162.652 282.651,162.652 282.805 C 162.652 282.959,162.555 283.085,162.436 283.085 C 162.316 283.085,161.941 283.664,161.602 284.371 C 161.262 285.078,160.461 286.570,159.822 287.686 C 159.182 288.802,158.229 290.507,157.703 291.475 C 157.177 292.442,156.236 294.147,155.612 295.264 C 154.987 296.380,153.920 298.329,153.240 299.594 C 152.561 300.859,151.721 302.319,151.374 302.837 C 151.028 303.355,150.744 303.871,150.744 303.982 C 150.744 304.094,150.278 304.949,149.709 305.882 C 148.674 307.578,146.737 311.120,145.295 313.954 C 144.873 314.781,144.250 315.720,143.909 316.040 L 143.290 316.622 122.457 316.644 C 110.999 316.657,101.472 316.661,101.286 316.655 C 100.731 316.637,100.897 315.983,101.759 314.793 C 102.206 314.176,102.571 313.600,102.571 313.512 C 102.571 313.424,103.320 312.053,104.236 310.465 C 105.151 308.877,106.107 307.212,106.359 306.766 C 108.515 302.949,111.531 297.715,112.617 295.907 C 113.344 294.698,113.938 293.650,113.938 293.579 C 113.938 293.508,115.095 291.471,116.509 289.053 C 117.923 286.635,119.080 284.610,119.080 284.553 C 119.080 284.495,119.567 283.652,120.162 282.679 C 120.758 281.707,121.245 280.862,121.245 280.802 C 121.245 280.743,121.771 279.801,122.414 278.710 C 123.057 277.618,124.010 275.934,124.533 274.966 C 125.055 273.999,126.439 271.563,127.608 269.553 C 128.778 267.544,129.925 265.533,130.158 265.084 C 130.567 264.296,131.969 261.878,133.867 258.687 C 134.367 257.846,134.777 257.084,134.777 256.993 C 134.777 256.902,135.455 255.703,136.283 254.327 C 137.111 252.952,137.884 251.644,138.001 251.421 C 138.117 251.198,139.167 249.371,140.335 247.361 C 141.503 245.352,142.794 243.057,143.205 242.262 C 143.616 241.467,144.067 240.676,144.207 240.503 C 144.488 240.157,145.009 239.239,146.535 236.401 C 147.095 235.359,147.646 234.384,147.760 234.235 C 147.873 234.087,148.267 233.417,148.635 232.747 C 149.004 232.077,150.257 229.885,151.421 227.876 C 152.585 225.866,153.838 223.674,154.206 223.004 C 154.575 222.334,154.968 221.664,155.080 221.516 C 155.192 221.367,155.890 220.149,156.632 218.809 C 157.373 217.470,158.222 215.947,158.518 215.426 C 158.814 214.905,159.880 213.018,160.888 211.231 C 161.896 209.445,162.949 207.654,163.228 207.250 C 163.507 206.847,163.735 206.454,163.735 206.376 C 163.735 206.298,164.208 205.461,164.786 204.516 C 165.365 203.571,166.278 201.948,166.815 200.910 C 167.352 199.872,168.043 198.753,168.349 198.424 L 168.907 197.826 190.939 197.898 C 211.626 197.966,213.001 198.000,213.455 198.451 " stroke="none" fill="#848484" fill-rule="evenodd"></path><path id="path4" d="M117.794 317.118 C 122.371 317.159,129.861 317.159,134.438 317.118 C 139.016 317.076,135.271 317.042,126.116 317.042 C 116.962 317.042,113.217 317.076,117.794 317.118 " stroke="none" fill="#7c7c7c" fill-rule="evenodd"></path></g></svg>